<?xml version="1.0" encoding="UTF-8" standalone="no"?><!DOCTYPE svg PUBLIC "-//W3C//DTD SVG 1.1//EN" "http://www.w3.org/Graphics/SVG/1.1/DTD/svg11.dtd"><svg width="100%" height="100%" viewBox="0 0 567 336" version="1.1" xmlns="http://www.w3.org/2000/svg" xmlns:xlink="http://www.w3.org/1999/xlink" xml:space="preserve" xmlns:serif="http://www.serif.com/" style="fill-rule:evenodd;clip-rule:evenodd;"><rect id="Artboard1" x="0" y="0" width="566.887" height="335.848" style="fill:none;"/><g id="_1" serif:id="1"><path d="M518.486,297.138l0,-43.106" style="fill:none;stroke:#000;stroke-width:3px;"/><path d="M476.375,231.497l2.524,0l4.845,11.204l0.04,0l4.885,-11.204l2.463,0l0,14.293l-1.696,-0l0,-11.991l-0.04,-0l-5.128,11.991l-1.029,-0l-5.128,-11.991l-0.04,-0l-0,11.991l-1.696,-0l0,-14.293Z" style="fill-rule:nonzero;"/><path d="M494.281,237.553c0.485,-0.497 1.06,-0.864 1.726,-1.1c0.667,-0.235 1.343,-0.353 2.029,-0.353c1.4,-0 2.409,0.33 3.028,0.989c0.619,0.66 0.929,1.662 0.929,3.008l-0,4.058c-0,0.269 0.013,0.548 0.04,0.838c0.027,0.289 0.061,0.555 0.101,0.797l-1.514,-0c-0.054,-0.215 -0.084,-0.454 -0.091,-0.717c-0.006,-0.262 -0.01,-0.494 -0.01,-0.696l-0.04,-0c-0.31,0.484 -0.723,0.881 -1.242,1.191c-0.518,0.309 -1.14,0.464 -1.867,0.464c-0.484,0 -0.939,-0.06 -1.363,-0.182c-0.424,-0.121 -0.794,-0.299 -1.11,-0.534c-0.316,-0.236 -0.568,-0.529 -0.757,-0.879c-0.188,-0.35 -0.283,-0.753 -0.283,-1.211c0,-0.78 0.202,-1.393 0.606,-1.837c0.404,-0.444 0.905,-0.774 1.504,-0.989c0.599,-0.215 1.245,-0.35 1.938,-0.404c0.693,-0.054 1.329,-0.081 1.908,-0.081l0.605,0l0,-0.282c0,-0.687 -0.205,-1.205 -0.615,-1.555c-0.411,-0.35 -0.986,-0.525 -1.726,-0.525c-0.512,0 -1.013,0.085 -1.504,0.253c-0.492,0.168 -0.926,0.427 -1.302,0.777l-0.99,-1.03Zm4.563,3.695c-1.01,-0 -1.81,0.141 -2.403,0.424c-0.592,0.282 -0.888,0.747 -0.888,1.393c0,0.592 0.199,1.012 0.596,1.261c0.397,0.249 0.891,0.374 1.484,0.374c0.457,-0 0.857,-0.078 1.201,-0.232c0.343,-0.155 0.629,-0.36 0.858,-0.616c0.228,-0.256 0.403,-0.555 0.524,-0.898c0.122,-0.344 0.189,-0.71 0.202,-1.101l0,-0.605l-1.574,-0Z" style="fill-rule:nonzero;"/><path d="M511.602,238.704c-0.336,-0.404 -0.7,-0.696 -1.09,-0.878c-0.39,-0.182 -0.821,-0.273 -1.292,-0.273c-0.525,0 -0.989,0.091 -1.393,0.273c-0.404,0.182 -0.737,0.434 -0.999,0.757c-0.263,0.323 -0.461,0.697 -0.596,1.12c-0.134,0.424 -0.202,0.879 -0.202,1.363c0,0.485 0.078,0.939 0.233,1.363c0.154,0.424 0.37,0.797 0.646,1.12c0.275,0.323 0.609,0.575 0.999,0.757c0.39,0.182 0.828,0.273 1.312,0.273c1.036,-0 1.837,-0.391 2.402,-1.171l1.171,1.11c-0.457,0.525 -0.996,0.909 -1.615,1.151c-0.619,0.242 -1.272,0.363 -1.958,0.363c-0.727,0 -1.393,-0.121 -1.998,-0.363c-0.606,-0.242 -1.121,-0.586 -1.545,-1.03c-0.424,-0.444 -0.753,-0.969 -0.989,-1.574c-0.236,-0.606 -0.353,-1.272 -0.353,-1.999c-0,-0.713 0.117,-1.373 0.353,-1.978c0.236,-0.606 0.569,-1.131 0.999,-1.575c0.431,-0.444 0.946,-0.791 1.545,-1.04c0.598,-0.249 1.261,-0.373 1.988,-0.373c0.7,-0 1.363,0.121 1.989,0.363c0.625,0.243 1.174,0.619 1.645,1.131l-1.252,1.11Z" style="fill-rule:nonzero;"/><path d="M514.61,230.528l1.575,0l-0,7.126l0.04,0c0.108,-0.188 0.256,-0.373 0.444,-0.555c0.189,-0.181 0.414,-0.346 0.676,-0.494c0.263,-0.148 0.556,-0.269 0.879,-0.364c0.323,-0.094 0.666,-0.141 1.029,-0.141c0.619,-0 1.154,0.094 1.605,0.283c0.451,0.188 0.824,0.45 1.12,0.787c0.297,0.336 0.515,0.743 0.657,1.221c0.141,0.478 0.212,1 0.212,1.565l-0,5.834l-1.575,-0l-0,-5.673c-0,-0.794 -0.175,-1.42 -0.525,-1.877c-0.35,-0.458 -0.895,-0.687 -1.635,-0.687c-0.512,0 -0.952,0.088 -1.322,0.263c-0.371,0.175 -0.673,0.424 -0.909,0.747c-0.235,0.323 -0.41,0.706 -0.525,1.151c-0.114,0.444 -0.171,0.935 -0.171,1.473l-0,4.603l-1.575,-0l0,-15.262Z" style="fill-rule:nonzero;"/><path d="M525.976,236.342l1.574,0l0,9.448l-1.574,-0l-0,-9.448Zm-0.364,-3.694c0,-0.31 0.111,-0.579 0.333,-0.808c0.222,-0.228 0.495,-0.343 0.818,-0.343c0.323,0 0.595,0.115 0.817,0.343c0.223,0.229 0.334,0.498 0.334,0.808c-0,0.336 -0.108,0.612 -0.323,0.828c-0.216,0.215 -0.492,0.323 -0.828,0.323c-0.337,-0 -0.612,-0.108 -0.828,-0.323c-0.215,-0.216 -0.323,-0.492 -0.323,-0.828Z" style="fill-rule:nonzero;"/><path d="M530.679,238.583c0,-0.431 -0.013,-0.834 -0.04,-1.211c-0.027,-0.377 -0.041,-0.72 -0.041,-1.03l1.494,0c0,0.256 0.007,0.512 0.021,0.767c0.013,0.256 0.02,0.519 0.02,0.788l0.04,-0c0.108,-0.229 0.259,-0.451 0.454,-0.667c0.195,-0.215 0.428,-0.407 0.697,-0.575c0.269,-0.168 0.572,-0.303 0.908,-0.404c0.337,-0.101 0.7,-0.151 1.09,-0.151c0.619,-0 1.154,0.094 1.605,0.283c0.451,0.188 0.825,0.45 1.121,0.787c0.296,0.336 0.514,0.743 0.656,1.221c0.141,0.478 0.212,1 0.212,1.565l-0,5.834l-1.575,-0l0,-5.673c0,-0.794 -0.175,-1.42 -0.525,-1.877c-0.35,-0.458 -0.895,-0.687 -1.635,-0.687c-0.511,0 -0.952,0.088 -1.322,0.263c-0.37,0.175 -0.673,0.424 -0.909,0.747c-0.235,0.323 -0.41,0.706 -0.525,1.151c-0.114,0.444 -0.171,0.935 -0.171,1.473l-0,4.603l-1.575,-0l0,-7.207Z" style="fill-rule:nonzero;"/><path d="M542.045,236.342l1.574,0l0,9.448l-1.574,-0l-0,-9.448Zm-0.364,-3.694c0,-0.31 0.111,-0.579 0.333,-0.808c0.222,-0.228 0.495,-0.343 0.818,-0.343c0.323,0 0.596,0.115 0.818,0.343c0.222,0.229 0.333,0.498 0.333,0.808c-0,0.336 -0.108,0.612 -0.323,0.828c-0.216,0.215 -0.492,0.323 -0.828,0.323c-0.336,-0 -0.612,-0.108 -0.828,-0.323c-0.215,-0.216 -0.323,-0.492 -0.323,-0.828Z" style="fill-rule:nonzero;"/><path d="M546.95,243.307c0.31,0.39 0.65,0.7 1.02,0.928c0.37,0.229 0.837,0.344 1.403,0.344c0.242,-0 0.488,-0.027 0.737,-0.081c0.249,-0.054 0.474,-0.141 0.676,-0.263c0.202,-0.121 0.363,-0.272 0.484,-0.454c0.121,-0.181 0.182,-0.4 0.182,-0.656c0,-0.256 -0.057,-0.464 -0.172,-0.626c-0.114,-0.161 -0.265,-0.299 -0.454,-0.413c-0.188,-0.115 -0.404,-0.206 -0.646,-0.273c-0.242,-0.067 -0.491,-0.128 -0.747,-0.182c-0.444,-0.094 -0.868,-0.202 -1.272,-0.323c-0.403,-0.121 -0.757,-0.279 -1.059,-0.474c-0.303,-0.195 -0.545,-0.448 -0.727,-0.757c-0.182,-0.31 -0.273,-0.707 -0.273,-1.191c0,-0.458 0.101,-0.861 0.303,-1.211c0.202,-0.35 0.471,-0.64 0.808,-0.868c0.336,-0.229 0.713,-0.404 1.13,-0.525c0.417,-0.121 0.848,-0.182 1.292,-0.182c0.673,-0 1.295,0.135 1.867,0.404c0.572,0.269 1.02,0.706 1.343,1.312l-1.312,0.868c-0.202,-0.336 -0.468,-0.609 -0.798,-0.818c-0.329,-0.208 -0.73,-0.313 -1.201,-0.313c-0.215,0 -0.434,0.027 -0.656,0.081c-0.222,0.054 -0.42,0.135 -0.595,0.242c-0.175,0.108 -0.32,0.246 -0.434,0.414c-0.115,0.169 -0.172,0.36 -0.172,0.576c-0,0.202 0.064,0.373 0.192,0.514c0.128,0.142 0.303,0.266 0.525,0.374c0.222,0.108 0.477,0.202 0.767,0.283c0.289,0.08 0.589,0.148 0.898,0.201c0.417,0.081 0.814,0.185 1.191,0.313c0.377,0.128 0.707,0.3 0.989,0.515c0.283,0.215 0.505,0.485 0.666,0.808c0.162,0.323 0.243,0.72 0.243,1.191c-0,0.538 -0.108,0.996 -0.323,1.372c-0.216,0.377 -0.502,0.683 -0.858,0.919c-0.357,0.235 -0.761,0.407 -1.211,0.515c-0.451,0.107 -0.912,0.161 -1.383,0.161c-0.808,0 -1.504,-0.124 -2.09,-0.373c-0.585,-0.249 -1.113,-0.71 -1.584,-1.383l1.251,-0.969Z" style="fill-rule:nonzero;"/><path d="M560.516,237.675l-2.786,-0l0,4.723c0,0.31 0.007,0.596 0.02,0.858c0.014,0.263 0.068,0.492 0.162,0.687c0.094,0.195 0.235,0.35 0.424,0.464c0.188,0.114 0.457,0.172 0.807,0.172c0.229,-0 0.465,-0.027 0.707,-0.081c0.242,-0.054 0.471,-0.135 0.686,-0.242l0.061,1.433c-0.269,0.121 -0.569,0.209 -0.898,0.262c-0.33,0.054 -0.643,0.081 -0.939,0.081c-0.565,0 -1.016,-0.074 -1.353,-0.222c-0.336,-0.148 -0.599,-0.357 -0.787,-0.626c-0.188,-0.269 -0.313,-0.602 -0.374,-0.999c-0.06,-0.397 -0.09,-0.838 -0.09,-1.322l-0,-5.188l-2.059,-0l-0,-1.333l2.059,0l-0,-2.685l1.574,0l0,2.685l2.786,0l0,1.333Z" style="fill-rule:nonzero;"/></g></svg>