<?xml version="1.0" encoding="UTF-8" standalone="no"?><!DOCTYPE svg PUBLIC "-//W3C//DTD SVG 1.1//EN" "http://www.w3.org/Graphics/SVG/1.1/DTD/svg11.dtd"><svg width="100%" height="100%" viewBox="0 0 567 336" version="1.1" xmlns="http://www.w3.org/2000/svg" xmlns:xlink="http://www.w3.org/1999/xlink" xml:space="preserve" xmlns:serif="http://www.serif.com/" style="fill-rule:evenodd;clip-rule:evenodd;"><rect id="Artboard1" x="0" y="0" width="566.887" height="335.848" style="fill:none;"/><g id="_2" serif:id="2"><path d="M405.673,240.663l-0,-43.106" style="fill:none;stroke:#000;stroke-width:3px;"/><path d="M338.439,173.185c-0.283,-0.458 -0.66,-0.791 -1.131,-1c-0.471,-0.208 -0.962,-0.312 -1.473,-0.312c-0.377,-0 -0.747,0.047 -1.111,0.141c-0.363,0.094 -0.689,0.235 -0.979,0.424c-0.289,0.188 -0.521,0.437 -0.696,0.747c-0.175,0.309 -0.263,0.673 -0.263,1.09c0,0.323 0.051,0.609 0.152,0.858c0.101,0.249 0.266,0.474 0.494,0.676c0.229,0.202 0.539,0.39 0.929,0.565c0.39,0.175 0.868,0.35 1.433,0.525c0.552,0.175 1.087,0.364 1.605,0.565c0.518,0.202 0.976,0.458 1.373,0.768c0.397,0.309 0.713,0.696 0.949,1.16c0.235,0.465 0.353,1.047 0.353,1.747c-0,0.713 -0.141,1.332 -0.424,1.857c-0.283,0.525 -0.656,0.959 -1.12,1.302c-0.465,0.343 -1,0.599 -1.605,0.767c-0.606,0.168 -1.232,0.252 -1.878,0.252c-0.417,0 -0.834,-0.037 -1.251,-0.111c-0.418,-0.074 -0.818,-0.188 -1.201,-0.343c-0.384,-0.155 -0.744,-0.357 -1.08,-0.605c-0.337,-0.249 -0.626,-0.556 -0.869,-0.919l1.454,-1.191c0.309,0.525 0.74,0.922 1.292,1.191c0.552,0.269 1.137,0.404 1.756,0.404c0.364,-0 0.73,-0.054 1.1,-0.162c0.371,-0.107 0.704,-0.266 1,-0.474c0.296,-0.209 0.538,-0.468 0.726,-0.777c0.189,-0.31 0.283,-0.667 0.283,-1.07c0,-0.444 -0.074,-0.804 -0.222,-1.08c-0.148,-0.276 -0.377,-0.515 -0.686,-0.717c-0.31,-0.202 -0.7,-0.384 -1.171,-0.545c-0.471,-0.162 -1.023,-0.35 -1.656,-0.565c-0.511,-0.162 -0.982,-0.347 -1.413,-0.555c-0.43,-0.209 -0.804,-0.465 -1.12,-0.768c-0.316,-0.302 -0.565,-0.666 -0.747,-1.09c-0.182,-0.424 -0.273,-0.932 -0.273,-1.524c0,-0.686 0.135,-1.285 0.404,-1.796c0.269,-0.512 0.633,-0.939 1.09,-1.282c0.458,-0.344 0.976,-0.603 1.555,-0.778c0.578,-0.175 1.184,-0.262 1.817,-0.262c0.807,-0 1.544,0.124 2.21,0.373c0.666,0.249 1.262,0.683 1.787,1.303l-1.393,1.211Z" style="fill-rule:nonzero;"/><path d="M347.765,176.839l-2.786,-0l0,4.724c0,0.309 0.007,0.595 0.021,0.857c0.013,0.263 0.067,0.492 0.161,0.687c0.094,0.195 0.236,0.35 0.424,0.464c0.189,0.115 0.458,0.172 0.808,0.172c0.228,-0 0.464,-0.027 0.706,-0.081c0.242,-0.054 0.471,-0.135 0.687,-0.242l0.06,1.433c-0.269,0.121 -0.569,0.209 -0.898,0.262c-0.33,0.054 -0.643,0.081 -0.939,0.081c-0.565,0 -1.016,-0.074 -1.353,-0.222c-0.336,-0.148 -0.598,-0.356 -0.787,-0.626c-0.188,-0.269 -0.313,-0.602 -0.373,-0.999c-0.061,-0.397 -0.091,-0.838 -0.091,-1.322l-0,-5.188l-2.059,-0l-0,-1.333l2.059,0l-0,-2.685l1.574,0l0,2.685l2.786,0l0,1.333Z" style="fill-rule:nonzero;"/><path d="M349.158,180.23c0,-0.74 0.128,-1.413 0.384,-2.019c0.256,-0.605 0.605,-1.127 1.05,-1.564c0.444,-0.438 0.975,-0.777 1.594,-1.02c0.619,-0.242 1.292,-0.363 2.019,-0.363c0.727,0 1.4,0.121 2.019,0.363c0.619,0.243 1.151,0.582 1.595,1.02c0.444,0.437 0.794,0.959 1.049,1.564c0.256,0.606 0.384,1.279 0.384,2.019c-0,0.74 -0.128,1.413 -0.384,2.019c-0.255,0.605 -0.605,1.127 -1.049,1.564c-0.444,0.438 -0.976,0.778 -1.595,1.02c-0.619,0.242 -1.292,0.363 -2.019,0.363c-0.727,0 -1.4,-0.121 -2.019,-0.363c-0.619,-0.242 -1.15,-0.582 -1.594,-1.02c-0.445,-0.437 -0.794,-0.959 -1.05,-1.564c-0.256,-0.606 -0.384,-1.279 -0.384,-2.019Zm1.696,0c-0,0.498 0.077,0.959 0.232,1.383c0.155,0.424 0.38,0.794 0.676,1.11c0.297,0.317 0.65,0.566 1.06,0.747c0.411,0.182 0.872,0.273 1.383,0.273c0.512,-0 0.972,-0.091 1.383,-0.273c0.41,-0.181 0.764,-0.43 1.06,-0.747c0.296,-0.316 0.521,-0.686 0.676,-1.11c0.155,-0.424 0.232,-0.885 0.232,-1.383c0,-0.498 -0.077,-0.959 -0.232,-1.383c-0.155,-0.424 -0.38,-0.794 -0.676,-1.11c-0.296,-0.316 -0.65,-0.565 -1.06,-0.747c-0.411,-0.182 -0.871,-0.272 -1.383,-0.272c-0.511,-0 -0.972,0.09 -1.383,0.272c-0.41,0.182 -0.763,0.431 -1.06,0.747c-0.296,0.316 -0.521,0.686 -0.676,1.11c-0.155,0.424 -0.232,0.885 -0.232,1.383Z" style="fill-rule:nonzero;"/><path d="M368.417,177.868c-0.336,-0.404 -0.7,-0.696 -1.09,-0.878c-0.39,-0.182 -0.821,-0.272 -1.292,-0.272c-0.525,-0 -0.989,0.09 -1.393,0.272c-0.404,0.182 -0.737,0.434 -0.999,0.757c-0.263,0.323 -0.461,0.697 -0.596,1.12c-0.134,0.424 -0.202,0.879 -0.202,1.363c0,0.485 0.078,0.939 0.232,1.363c0.155,0.424 0.371,0.797 0.646,1.12c0.276,0.323 0.609,0.576 1,0.757c0.39,0.182 0.827,0.273 1.312,0.273c1.036,-0 1.837,-0.391 2.402,-1.171l1.171,1.11c-0.458,0.525 -0.996,0.909 -1.615,1.151c-0.619,0.242 -1.272,0.363 -1.958,0.363c-0.727,0 -1.393,-0.121 -1.999,-0.363c-0.605,-0.242 -1.12,-0.586 -1.544,-1.03c-0.424,-0.444 -0.754,-0.969 -0.989,-1.574c-0.236,-0.606 -0.353,-1.272 -0.353,-1.999c-0,-0.713 0.117,-1.373 0.353,-1.978c0.235,-0.606 0.568,-1.131 0.999,-1.575c0.431,-0.444 0.946,-0.791 1.544,-1.039c0.599,-0.249 1.262,-0.374 1.989,-0.374c0.7,0 1.363,0.121 1.988,0.363c0.626,0.243 1.175,0.619 1.646,1.131l-1.252,1.11Z" style="fill-rule:nonzero;"/><path d="M371.425,169.692l1.575,0l-0,9.973l4.299,-4.159l2.241,0l-4.562,4.3l5.027,5.148l-2.322,-0l-4.683,-4.966l-0,4.966l-1.575,-0l-0,-15.262Z" style="fill-rule:nonzero;"/><path d="M394.196,173.185c-0.282,-0.458 -0.659,-0.791 -1.13,-1c-0.471,-0.208 -0.963,-0.312 -1.474,-0.312c-0.377,-0 -0.747,0.047 -1.11,0.141c-0.364,0.094 -0.69,0.235 -0.979,0.424c-0.29,0.188 -0.522,0.437 -0.697,0.747c-0.175,0.309 -0.262,0.673 -0.262,1.09c-0,0.323 0.05,0.609 0.151,0.858c0.101,0.249 0.266,0.474 0.495,0.676c0.229,0.202 0.538,0.39 0.928,0.565c0.391,0.175 0.868,0.35 1.434,0.525c0.551,0.175 1.086,0.364 1.605,0.565c0.518,0.202 0.975,0.458 1.372,0.768c0.397,0.309 0.714,0.696 0.949,1.16c0.236,0.465 0.353,1.047 0.353,1.747c0,0.713 -0.141,1.332 -0.424,1.857c-0.282,0.525 -0.656,0.959 -1.12,1.302c-0.464,0.343 -0.999,0.599 -1.605,0.767c-0.605,0.168 -1.231,0.252 -1.877,0.252c-0.417,0 -0.835,-0.037 -1.252,-0.111c-0.417,-0.074 -0.817,-0.188 -1.201,-0.343c-0.384,-0.155 -0.744,-0.357 -1.08,-0.605c-0.336,-0.249 -0.626,-0.556 -0.868,-0.919l1.453,-1.191c0.31,0.525 0.741,0.922 1.292,1.191c0.552,0.269 1.138,0.404 1.757,0.404c0.363,-0 0.73,-0.054 1.1,-0.162c0.37,-0.107 0.703,-0.266 0.999,-0.474c0.296,-0.209 0.539,-0.468 0.727,-0.777c0.188,-0.31 0.283,-0.667 0.283,-1.07c-0,-0.444 -0.074,-0.804 -0.223,-1.08c-0.148,-0.276 -0.376,-0.515 -0.686,-0.717c-0.309,-0.202 -0.7,-0.384 -1.171,-0.545c-0.471,-0.162 -1.023,-0.35 -1.655,-0.565c-0.512,-0.162 -0.983,-0.347 -1.413,-0.555c-0.431,-0.209 -0.804,-0.465 -1.121,-0.768c-0.316,-0.302 -0.565,-0.666 -0.747,-1.09c-0.181,-0.424 -0.272,-0.932 -0.272,-1.524c-0,-0.686 0.135,-1.285 0.404,-1.796c0.269,-0.512 0.632,-0.939 1.09,-1.282c0.457,-0.344 0.976,-0.603 1.554,-0.778c0.579,-0.175 1.185,-0.262 1.817,-0.262c0.808,-0 1.544,0.124 2.211,0.373c0.666,0.249 1.261,0.683 1.786,1.303l-1.393,1.211Z" style="fill-rule:nonzero;"/><path d="M406.591,182.713c0,0.431 0.014,0.835 0.041,1.211c0.027,0.377 0.04,0.72 0.04,1.03l-1.494,-0c0,-0.256 -0.007,-0.511 -0.02,-0.767c-0.013,-0.256 -0.02,-0.518 -0.02,-0.787l-0.041,-0c-0.107,0.228 -0.259,0.45 -0.454,0.666c-0.195,0.215 -0.427,0.407 -0.696,0.575c-0.269,0.168 -0.572,0.303 -0.909,0.404c-0.336,0.101 -0.7,0.151 -1.09,0.151c-0.619,0 -1.154,-0.094 -1.605,-0.282c-0.451,-0.189 -0.824,-0.451 -1.12,-0.788c-0.296,-0.336 -0.515,-0.743 -0.656,-1.221c-0.142,-0.478 -0.212,-0.999 -0.212,-1.565l-0,-5.834l1.574,0l0,5.673c0,0.794 0.175,1.42 0.525,1.877c0.35,0.458 0.895,0.687 1.636,0.687c0.511,-0 0.952,-0.088 1.322,-0.263c0.37,-0.175 0.673,-0.424 0.908,-0.747c0.236,-0.323 0.411,-0.706 0.525,-1.15c0.114,-0.444 0.172,-0.936 0.172,-1.474l-0,-4.603l1.574,0l0,7.207Z" style="fill-rule:nonzero;"/><path d="M409.498,175.506l1.575,0l-0,1.373l0.04,0c0.431,-0.511 0.932,-0.908 1.504,-1.191c0.572,-0.283 1.201,-0.424 1.888,-0.424c0.74,0 1.416,0.125 2.029,0.374c0.612,0.248 1.133,0.595 1.564,1.039c0.431,0.444 0.767,0.969 1.009,1.575c0.243,0.605 0.364,1.265 0.364,1.978c-0,0.713 -0.121,1.373 -0.364,1.978c-0.242,0.606 -0.575,1.131 -0.999,1.575c-0.424,0.444 -0.925,0.791 -1.504,1.04c-0.578,0.249 -1.198,0.373 -1.857,0.373c-0.848,0 -1.591,-0.185 -2.231,-0.555c-0.639,-0.37 -1.107,-0.824 -1.403,-1.363l-0.04,0l-0,6.279l-1.575,-0l0,-14.051Zm1.575,4.724c-0,0.498 0.077,0.959 0.232,1.383c0.155,0.424 0.38,0.794 0.676,1.11c0.296,0.317 0.65,0.566 1.06,0.747c0.411,0.182 0.872,0.273 1.383,0.273c0.511,-0 0.972,-0.091 1.383,-0.273c0.41,-0.181 0.764,-0.43 1.06,-0.747c0.296,-0.316 0.521,-0.686 0.676,-1.11c0.155,-0.424 0.232,-0.885 0.232,-1.383c0,-0.498 -0.077,-0.959 -0.232,-1.383c-0.155,-0.424 -0.38,-0.794 -0.676,-1.11c-0.296,-0.316 -0.65,-0.565 -1.06,-0.747c-0.411,-0.182 -0.872,-0.272 -1.383,-0.272c-0.511,-0 -0.972,0.09 -1.383,0.272c-0.41,0.182 -0.764,0.431 -1.06,0.747c-0.296,0.316 -0.521,0.686 -0.676,1.11c-0.155,0.424 -0.232,0.885 -0.232,1.383Z" style="fill-rule:nonzero;"/><path d="M430.352,183.238c-0.565,0.727 -1.185,1.235 -1.857,1.524c-0.673,0.29 -1.454,0.434 -2.342,0.434c-0.74,0 -1.407,-0.131 -1.999,-0.393c-0.592,-0.263 -1.093,-0.616 -1.504,-1.06c-0.41,-0.444 -0.726,-0.969 -0.948,-1.575c-0.223,-0.605 -0.334,-1.251 -0.334,-1.938c0,-0.727 0.122,-1.396 0.364,-2.009c0.242,-0.612 0.579,-1.137 1.009,-1.574c0.431,-0.438 0.942,-0.777 1.534,-1.02c0.593,-0.242 1.239,-0.363 1.938,-0.363c0.66,0 1.265,0.111 1.817,0.333c0.552,0.222 1.026,0.545 1.423,0.969c0.397,0.424 0.704,0.942 0.919,1.555c0.215,0.612 0.323,1.308 0.323,2.089l-0,0.505l-7.631,-0c0.027,0.403 0.125,0.79 0.293,1.16c0.168,0.371 0.387,0.694 0.656,0.969c0.269,0.276 0.585,0.495 0.949,0.656c0.363,0.162 0.76,0.243 1.191,0.243c0.686,-0 1.265,-0.121 1.736,-0.364c0.471,-0.242 0.895,-0.599 1.272,-1.07l1.191,0.929Zm-1.353,-3.856c-0.027,-0.807 -0.289,-1.453 -0.787,-1.938c-0.498,-0.484 -1.184,-0.726 -2.059,-0.726c-0.875,-0 -1.582,0.242 -2.12,0.726c-0.538,0.485 -0.861,1.131 -0.969,1.938l5.935,0Z" style="fill-rule:nonzero;"/><path d="M433.138,177.747c-0,-0.431 -0.014,-0.834 -0.041,-1.211c-0.027,-0.377 -0.04,-0.72 -0.04,-1.03l1.494,0c-0,0.256 0.006,0.512 0.02,0.767c0.013,0.256 0.02,0.519 0.02,0.788l0.041,-0c0.107,-0.229 0.259,-0.451 0.454,-0.666c0.195,-0.216 0.427,-0.408 0.696,-0.576c0.269,-0.168 0.572,-0.303 0.909,-0.404c0.336,-0.1 0.699,-0.151 1.09,-0.151c0.107,0 0.215,0.007 0.323,0.02c0.107,0.014 0.215,0.041 0.323,0.081l-0.101,1.595c-0.269,-0.081 -0.552,-0.121 -0.848,-0.121c-0.969,-0 -1.672,0.313 -2.11,0.938c-0.437,0.626 -0.656,1.484 -0.656,2.574l0,4.603l-1.574,-0l-0,-7.207Z" style="fill-rule:nonzero;"/><path d="M444.544,184.954l-1.737,-0l-3.855,-9.448l1.837,0l2.947,7.409l0.04,0l2.806,-7.409l1.696,0l-3.734,9.448Z" style="fill-rule:nonzero;"/><path d="M450.115,175.506l1.575,0l-0,9.448l-1.575,-0l0,-9.448Zm-0.363,-3.694c-0,-0.31 0.111,-0.579 0.333,-0.807c0.222,-0.229 0.495,-0.344 0.818,-0.344c0.323,0 0.595,0.115 0.817,0.344c0.222,0.228 0.333,0.497 0.333,0.807c0,0.336 -0.107,0.612 -0.323,0.828c-0.215,0.215 -0.491,0.323 -0.827,0.323c-0.337,-0 -0.613,-0.108 -0.828,-0.323c-0.215,-0.216 -0.323,-0.492 -0.323,-0.828Z" style="fill-rule:nonzero;"/><path d="M455.021,182.471c0.309,0.39 0.649,0.7 1.019,0.929c0.37,0.228 0.838,0.343 1.403,0.343c0.242,-0 0.488,-0.027 0.737,-0.081c0.249,-0.054 0.474,-0.141 0.676,-0.262c0.202,-0.122 0.364,-0.273 0.485,-0.455c0.121,-0.181 0.182,-0.4 0.182,-0.656c-0,-0.255 -0.058,-0.464 -0.172,-0.626c-0.114,-0.161 -0.266,-0.299 -0.454,-0.413c-0.189,-0.115 -0.404,-0.206 -0.646,-0.273c-0.243,-0.067 -0.492,-0.128 -0.747,-0.182c-0.444,-0.094 -0.868,-0.201 -1.272,-0.323c-0.404,-0.121 -0.757,-0.279 -1.06,-0.474c-0.303,-0.195 -0.545,-0.448 -0.727,-0.757c-0.181,-0.31 -0.272,-0.707 -0.272,-1.191c-0,-0.458 0.101,-0.861 0.303,-1.211c0.202,-0.35 0.471,-0.64 0.807,-0.868c0.337,-0.229 0.713,-0.404 1.131,-0.525c0.417,-0.121 0.848,-0.182 1.292,-0.182c0.673,0 1.295,0.135 1.867,0.404c0.572,0.269 1.019,0.706 1.342,1.312l-1.312,0.868c-0.202,-0.336 -0.467,-0.609 -0.797,-0.818c-0.33,-0.208 -0.73,-0.312 -1.201,-0.312c-0.216,-0 -0.434,0.026 -0.656,0.08c-0.222,0.054 -0.421,0.135 -0.596,0.243c-0.175,0.107 -0.32,0.245 -0.434,0.413c-0.114,0.169 -0.172,0.36 -0.172,0.576c0,0.202 0.064,0.373 0.192,0.514c0.128,0.142 0.303,0.266 0.525,0.374c0.222,0.108 0.478,0.202 0.767,0.283c0.29,0.08 0.589,0.148 0.899,0.201c0.417,0.081 0.814,0.186 1.191,0.313c0.376,0.128 0.706,0.3 0.989,0.515c0.282,0.215 0.505,0.485 0.666,0.808c0.162,0.323 0.242,0.72 0.242,1.191c0,0.538 -0.107,0.996 -0.323,1.372c-0.215,0.377 -0.501,0.683 -0.858,0.919c-0.356,0.235 -0.76,0.407 -1.211,0.515c-0.451,0.107 -0.912,0.161 -1.383,0.161c-0.807,0 -1.504,-0.124 -2.089,-0.373c-0.586,-0.249 -1.114,-0.71 -1.585,-1.383l1.252,-0.969Z" style="fill-rule:nonzero;"/><path d="M462.874,180.23c-0,-0.74 0.127,-1.413 0.383,-2.019c0.256,-0.605 0.606,-1.127 1.05,-1.564c0.444,-0.438 0.976,-0.777 1.595,-1.02c0.619,-0.242 1.292,-0.363 2.018,-0.363c0.727,0 1.4,0.121 2.019,0.363c0.619,0.243 1.151,0.582 1.595,1.02c0.444,0.437 0.794,0.959 1.05,1.564c0.255,0.606 0.383,1.279 0.383,2.019c0,0.74 -0.128,1.413 -0.383,2.019c-0.256,0.605 -0.606,1.127 -1.05,1.564c-0.444,0.438 -0.976,0.778 -1.595,1.02c-0.619,0.242 -1.292,0.363 -2.019,0.363c-0.726,0 -1.399,-0.121 -2.018,-0.363c-0.619,-0.242 -1.151,-0.582 -1.595,-1.02c-0.444,-0.437 -0.794,-0.959 -1.05,-1.564c-0.256,-0.606 -0.383,-1.279 -0.383,-2.019Zm1.695,0c0,0.498 0.078,0.959 0.233,1.383c0.154,0.424 0.38,0.794 0.676,1.11c0.296,0.317 0.649,0.566 1.06,0.747c0.41,0.182 0.871,0.273 1.382,0.273c0.512,-0 0.973,-0.091 1.383,-0.273c0.411,-0.181 0.764,-0.43 1.06,-0.747c0.296,-0.316 0.522,-0.686 0.676,-1.11c0.155,-0.424 0.233,-0.885 0.233,-1.383c-0,-0.498 -0.078,-0.959 -0.233,-1.383c-0.154,-0.424 -0.38,-0.794 -0.676,-1.11c-0.296,-0.316 -0.649,-0.565 -1.06,-0.747c-0.41,-0.182 -0.871,-0.272 -1.383,-0.272c-0.511,-0 -0.972,0.09 -1.382,0.272c-0.411,0.182 -0.764,0.431 -1.06,0.747c-0.296,0.316 -0.522,0.686 -0.676,1.11c-0.155,0.424 -0.233,0.885 -0.233,1.383Z" style="fill-rule:nonzero;"/><path d="M475.41,177.747c-0,-0.431 -0.013,-0.834 -0.04,-1.211c-0.027,-0.377 -0.041,-0.72 -0.041,-1.03l1.494,0c0,0.256 0.007,0.512 0.02,0.767c0.014,0.256 0.02,0.519 0.02,0.788l0.041,-0c0.108,-0.229 0.259,-0.451 0.454,-0.666c0.195,-0.216 0.427,-0.408 0.697,-0.576c0.269,-0.168 0.571,-0.303 0.908,-0.404c0.336,-0.1 0.7,-0.151 1.09,-0.151c0.108,0 0.215,0.007 0.323,0.02c0.108,0.014 0.215,0.041 0.323,0.081l-0.101,1.595c-0.269,-0.081 -0.552,-0.121 -0.848,-0.121c-0.969,-0 -1.672,0.313 -2.109,0.938c-0.438,0.626 -0.656,1.484 -0.656,2.574l-0,4.603l-1.575,-0l-0,-7.207Z" style="fill-rule:nonzero;"/></g></svg>