<?xml version="1.0" encoding="UTF-8" standalone="no"?><!DOCTYPE svg PUBLIC "-//W3C//DTD SVG 1.1//EN" "http://www.w3.org/Graphics/SVG/1.1/DTD/svg11.dtd"><svg width="100%" height="100%" viewBox="0 0 567 336" version="1.1" xmlns="http://www.w3.org/2000/svg" xmlns:xlink="http://www.w3.org/1999/xlink" xml:space="preserve" xmlns:serif="http://www.serif.com/" style="fill-rule:evenodd;clip-rule:evenodd;"><rect id="Artboard1" x="0" y="0" width="566.887" height="335.848" style="fill:none;"/><g id="_3" serif:id="3"><path d="M292.859,184.079l0,-43.106" style="fill:none;stroke:#000;stroke-width:3px;"/><path d="M228.886,113.836l5.491,-0c0.471,-0 0.969,0.053 1.494,0.161c0.524,0.108 1.046,0.279 1.564,0.515c0.518,0.235 1.016,0.541 1.494,0.918c0.478,0.377 0.898,0.831 1.262,1.363c0.363,0.532 0.652,1.144 0.868,1.837c0.215,0.693 0.323,1.477 0.323,2.352c-0,0.875 -0.108,1.659 -0.323,2.352c-0.216,0.693 -0.505,1.305 -0.868,1.837c-0.364,0.531 -0.784,0.986 -1.262,1.362c-0.478,0.377 -0.976,0.683 -1.494,0.919c-0.518,0.235 -1.04,0.407 -1.564,0.515c-0.525,0.107 -1.023,0.161 -1.494,0.161l-5.491,0l-0,-14.292Zm1.695,12.718l3.23,-0c0.821,-0 1.582,-0.108 2.282,-0.323c0.699,-0.216 1.305,-0.549 1.816,-1c0.512,-0.451 0.916,-1.026 1.212,-1.726c0.296,-0.7 0.444,-1.541 0.444,-2.523c-0,-0.983 -0.148,-1.824 -0.444,-2.524c-0.296,-0.699 -0.7,-1.275 -1.212,-1.726c-0.511,-0.45 -1.117,-0.784 -1.816,-0.999c-0.7,-0.215 -1.461,-0.323 -2.282,-0.323l-3.23,0l0,11.144Z" style="fill-rule:nonzero;"/><path d="M252.061,125.887c-0,0.431 0.013,0.835 0.04,1.212c0.027,0.376 0.041,0.72 0.041,1.029l-1.494,0c-0,-0.256 -0.007,-0.511 -0.02,-0.767c-0.014,-0.256 -0.021,-0.518 -0.021,-0.787l-0.04,-0c-0.108,0.229 -0.259,0.451 -0.454,0.666c-0.195,0.215 -0.428,0.407 -0.697,0.575c-0.269,0.168 -0.572,0.303 -0.908,0.404c-0.337,0.101 -0.7,0.151 -1.09,0.151c-0.619,0 -1.154,-0.094 -1.605,-0.282c-0.451,-0.189 -0.824,-0.451 -1.121,-0.788c-0.296,-0.336 -0.514,-0.743 -0.656,-1.221c-0.141,-0.478 -0.212,-0.999 -0.212,-1.564l0,-5.835l1.575,0l-0,5.673c-0,0.794 0.175,1.42 0.525,1.878c0.35,0.457 0.895,0.686 1.635,0.686c0.511,-0 0.952,-0.088 1.322,-0.263c0.37,-0.174 0.673,-0.423 0.909,-0.746c0.235,-0.323 0.41,-0.707 0.525,-1.151c0.114,-0.444 0.171,-0.935 0.171,-1.474l0,-4.603l1.575,0l-0,7.207Z" style="fill-rule:nonzero;"/><path d="M260.217,120.013l-2.786,-0l-0,4.724c-0,0.309 0.006,0.595 0.02,0.858c0.013,0.262 0.067,0.491 0.161,0.686c0.095,0.195 0.236,0.35 0.424,0.464c0.189,0.115 0.458,0.172 0.808,0.172c0.229,-0 0.464,-0.027 0.706,-0.081c0.243,-0.054 0.471,-0.134 0.687,-0.242l0.06,1.433c-0.269,0.121 -0.568,0.209 -0.898,0.263c-0.33,0.053 -0.643,0.08 -0.939,0.08c-0.565,0 -1.016,-0.074 -1.352,-0.222c-0.337,-0.148 -0.599,-0.356 -0.788,-0.625c-0.188,-0.27 -0.313,-0.603 -0.373,-1c-0.061,-0.397 -0.091,-0.838 -0.091,-1.322l0,-5.188l-2.059,-0l-0,-1.333l2.059,0l0,-2.684l1.575,-0l-0,2.684l2.786,0l-0,1.333Z" style="fill-rule:nonzero;"/><path d="M265.627,130.288c-0.162,0.404 -0.327,0.771 -0.495,1.1c-0.168,0.33 -0.37,0.613 -0.605,0.848c-0.236,0.236 -0.519,0.417 -0.848,0.545c-0.33,0.128 -0.73,0.192 -1.202,0.192c-0.228,0 -0.467,-0.013 -0.716,-0.04c-0.249,-0.027 -0.481,-0.094 -0.697,-0.202l0.202,-1.373c0.162,0.067 0.33,0.111 0.505,0.131c0.175,0.021 0.377,0.031 0.606,0.031c0.511,-0 0.888,-0.142 1.13,-0.424c0.242,-0.283 0.451,-0.66 0.626,-1.131l0.646,-1.776l-3.916,-9.509l1.837,0l2.927,7.409l0.04,0l2.806,-7.409l1.716,0l-4.562,11.608Z" style="fill-rule:nonzero;"/><path d="M277.78,113.836l2.523,-0l4.845,11.203l0.04,0l4.886,-11.203l2.462,-0l0,14.292l-1.695,0l-0,-11.991l-0.041,-0l-5.127,11.991l-1.03,0l-5.127,-11.991l-0.041,-0l0,11.991l-1.695,0l-0,-14.292Z" style="fill-rule:nonzero;"/><path d="M295.686,119.892c0.484,-0.498 1.06,-0.865 1.726,-1.101c0.666,-0.235 1.342,-0.353 2.029,-0.353c1.399,0 2.409,0.33 3.028,0.989c0.619,0.66 0.928,1.662 0.928,3.008l0,4.058c0,0.269 0.014,0.548 0.041,0.838c0.027,0.289 0.06,0.555 0.101,0.797l-1.514,0c-0.054,-0.215 -0.085,-0.454 -0.091,-0.717c-0.007,-0.262 -0.01,-0.494 -0.01,-0.696l-0.041,0c-0.309,0.485 -0.723,0.882 -1.241,1.191c-0.518,0.31 -1.141,0.464 -1.868,0.464c-0.484,0 -0.938,-0.06 -1.362,-0.181c-0.424,-0.121 -0.794,-0.3 -1.111,-0.535c-0.316,-0.236 -0.568,-0.528 -0.757,-0.878c-0.188,-0.35 -0.282,-0.754 -0.282,-1.212c-0,-0.78 0.202,-1.393 0.605,-1.837c0.404,-0.444 0.905,-0.774 1.504,-0.989c0.599,-0.215 1.245,-0.35 1.938,-0.404c0.693,-0.053 1.329,-0.08 1.908,-0.08l0.606,-0l-0,-0.283c-0,-0.686 -0.206,-1.205 -0.616,-1.554c-0.411,-0.35 -0.986,-0.525 -1.726,-0.525c-0.511,-0 -1.013,0.084 -1.504,0.252c-0.491,0.168 -0.925,0.427 -1.302,0.777l-0.989,-1.029Zm4.562,3.694c-1.009,-0 -1.81,0.141 -2.402,0.424c-0.592,0.283 -0.889,0.747 -0.889,1.393c0,0.592 0.199,1.013 0.596,1.262c0.397,0.249 0.892,0.373 1.484,0.373c0.457,0 0.858,-0.077 1.201,-0.232c0.343,-0.155 0.629,-0.36 0.858,-0.616c0.229,-0.256 0.404,-0.555 0.525,-0.898c0.121,-0.343 0.188,-0.71 0.202,-1.1l-0,-0.606l-1.575,-0Z" style="fill-rule:nonzero;"/><path d="M306.284,120.921c0,-0.43 -0.013,-0.834 -0.04,-1.211c-0.027,-0.377 -0.041,-0.72 -0.041,-1.03l1.494,0c0,0.256 0.007,0.512 0.02,0.768c0.014,0.255 0.021,0.518 0.021,0.787l0.04,-0c0.108,-0.229 0.259,-0.451 0.454,-0.666c0.195,-0.216 0.427,-0.407 0.697,-0.576c0.269,-0.168 0.572,-0.302 0.908,-0.403c0.336,-0.101 0.7,-0.152 1.09,-0.152c0.619,0 1.154,0.094 1.605,0.283c0.451,0.188 0.824,0.451 1.12,0.787c0.297,0.337 0.515,0.744 0.657,1.221c0.141,0.478 0.211,1 0.211,1.565l0,5.834l-1.574,0l-0,-5.672c-0,-0.795 -0.175,-1.42 -0.525,-1.878c-0.35,-0.458 -0.895,-0.686 -1.635,-0.686c-0.512,-0 -0.952,0.087 -1.322,0.262c-0.371,0.175 -0.673,0.424 -0.909,0.747c-0.235,0.323 -0.41,0.707 -0.525,1.151c-0.114,0.444 -0.171,0.935 -0.171,1.473l-0,4.603l-1.575,0l0,-7.207Z" style="fill-rule:nonzero;"/><path d="M317.387,119.892c0.485,-0.498 1.06,-0.865 1.726,-1.101c0.666,-0.235 1.343,-0.353 2.029,-0.353c1.4,0 2.409,0.33 3.028,0.989c0.619,0.66 0.929,1.662 0.929,3.008l-0,4.058c-0,0.269 0.013,0.548 0.04,0.838c0.027,0.289 0.061,0.555 0.101,0.797l-1.514,0c-0.054,-0.215 -0.084,-0.454 -0.091,-0.717c-0.007,-0.262 -0.01,-0.494 -0.01,-0.696l-0.04,0c-0.31,0.485 -0.724,0.882 -1.242,1.191c-0.518,0.31 -1.14,0.464 -1.867,0.464c-0.485,0 -0.939,-0.06 -1.363,-0.181c-0.424,-0.121 -0.794,-0.3 -1.11,-0.535c-0.316,-0.236 -0.569,-0.528 -0.757,-0.878c-0.189,-0.35 -0.283,-0.754 -0.283,-1.212c0,-0.78 0.202,-1.393 0.606,-1.837c0.404,-0.444 0.905,-0.774 1.504,-0.989c0.599,-0.215 1.245,-0.35 1.938,-0.404c0.693,-0.053 1.329,-0.08 1.907,-0.08l0.606,-0l0,-0.283c0,-0.686 -0.205,-1.205 -0.616,-1.554c-0.41,-0.35 -0.985,-0.525 -1.726,-0.525c-0.511,-0 -1.012,0.084 -1.504,0.252c-0.491,0.168 -0.925,0.427 -1.302,0.777l-0.989,-1.029Zm4.562,3.694c-1.009,-0 -1.81,0.141 -2.402,0.424c-0.592,0.283 -0.888,0.747 -0.888,1.393c-0,0.592 0.198,1.013 0.595,1.262c0.397,0.249 0.892,0.373 1.484,0.373c0.458,0 0.858,-0.077 1.201,-0.232c0.344,-0.155 0.63,-0.36 0.858,-0.616c0.229,-0.256 0.404,-0.555 0.525,-0.898c0.121,-0.343 0.189,-0.71 0.202,-1.1l0,-0.606l-1.575,-0Z" style="fill-rule:nonzero;"/><path d="M337.413,127.704c-0,1.723 -0.441,3.032 -1.322,3.927c-0.882,0.895 -2.157,1.342 -3.826,1.342c-0.928,0 -1.766,-0.134 -2.513,-0.404c-0.747,-0.269 -1.457,-0.733 -2.13,-1.393l1.131,-1.292c0.498,0.539 1.026,0.946 1.584,1.222c0.559,0.276 1.201,0.414 1.928,0.414c0.7,-0 1.282,-0.105 1.746,-0.313c0.465,-0.209 0.831,-0.492 1.101,-0.848c0.269,-0.357 0.457,-0.764 0.565,-1.221c0.108,-0.458 0.161,-0.936 0.161,-1.434l0,-1.211l-0.04,-0c-0.377,0.606 -0.868,1.05 -1.474,1.332c-0.605,0.283 -1.224,0.424 -1.857,0.424c-0.74,0 -1.42,-0.121 -2.039,-0.363c-0.619,-0.242 -1.151,-0.579 -1.595,-1.009c-0.444,-0.431 -0.787,-0.943 -1.029,-1.535c-0.242,-0.592 -0.364,-1.238 -0.364,-1.938c0,-0.767 0.122,-1.46 0.364,-2.079c0.242,-0.619 0.582,-1.141 1.019,-1.565c0.438,-0.423 0.966,-0.75 1.585,-0.979c0.619,-0.228 1.305,-0.343 2.059,-0.343c0.323,0 0.646,0.037 0.969,0.111c0.323,0.074 0.636,0.189 0.939,0.343c0.303,0.155 0.575,0.35 0.817,0.586c0.243,0.235 0.444,0.508 0.606,0.817l0.04,0l0,-1.615l1.575,0l-0,9.024Zm-8.277,-4.3c0,0.485 0.088,0.932 0.263,1.343c0.175,0.41 0.413,0.767 0.716,1.07c0.303,0.303 0.656,0.541 1.06,0.716c0.404,0.175 0.834,0.263 1.292,0.263c0.538,-0 1.016,-0.094 1.433,-0.283c0.418,-0.188 0.771,-0.441 1.06,-0.757c0.29,-0.316 0.508,-0.68 0.656,-1.09c0.148,-0.41 0.222,-0.844 0.222,-1.302c0,-0.511 -0.08,-0.979 -0.242,-1.403c-0.161,-0.424 -0.39,-0.791 -0.686,-1.1c-0.296,-0.31 -0.653,-0.549 -1.07,-0.717c-0.417,-0.168 -0.875,-0.252 -1.373,-0.252c-0.498,-0 -0.952,0.091 -1.363,0.272c-0.41,0.182 -0.76,0.431 -1.049,0.747c-0.29,0.316 -0.515,0.687 -0.677,1.11c-0.161,0.424 -0.242,0.885 -0.242,1.383Z" style="fill-rule:nonzero;"/><path d="M348.758,126.412c-0.565,0.727 -1.184,1.235 -1.857,1.524c-0.673,0.29 -1.453,0.434 -2.342,0.434c-0.74,0 -1.406,-0.131 -1.998,-0.393c-0.592,-0.263 -1.094,-0.616 -1.504,-1.06c-0.411,-0.444 -0.727,-0.969 -0.949,-1.575c-0.222,-0.605 -0.333,-1.251 -0.333,-1.938c-0,-0.726 0.121,-1.396 0.363,-2.008c0.242,-0.613 0.579,-1.138 1.01,-1.575c0.43,-0.437 0.942,-0.777 1.534,-1.019c0.592,-0.243 1.238,-0.364 1.938,-0.364c0.659,0 1.265,0.111 1.817,0.333c0.551,0.222 1.026,0.545 1.423,0.969c0.397,0.424 0.703,0.942 0.918,1.555c0.216,0.612 0.323,1.309 0.323,2.089l0,0.505l-7.63,-0c0.027,0.404 0.124,0.79 0.292,1.161c0.169,0.37 0.387,0.693 0.656,0.969c0.27,0.275 0.586,0.494 0.949,0.656c0.364,0.161 0.761,0.242 1.191,0.242c0.687,-0 1.265,-0.121 1.736,-0.363c0.471,-0.243 0.895,-0.599 1.272,-1.07l1.191,0.928Zm-1.352,-3.856c-0.027,-0.807 -0.29,-1.453 -0.788,-1.938c-0.498,-0.484 -1.184,-0.726 -2.059,-0.726c-0.875,-0 -1.581,0.242 -2.119,0.726c-0.539,0.485 -0.862,1.131 -0.969,1.938l5.935,0Z" style="fill-rule:nonzero;"/><path d="M351.544,120.921c0,-0.43 -0.013,-0.834 -0.04,-1.211c-0.027,-0.377 -0.041,-0.72 -0.041,-1.03l1.494,0c0,0.256 0.007,0.512 0.02,0.768c0.014,0.255 0.021,0.518 0.021,0.787l0.04,-0c0.108,-0.229 0.259,-0.451 0.454,-0.666c0.195,-0.216 0.427,-0.407 0.697,-0.576c0.269,-0.168 0.572,-0.302 0.908,-0.403c0.337,-0.101 0.7,-0.152 1.09,-0.152c0.108,0 0.216,0.007 0.323,0.02c0.108,0.014 0.216,0.041 0.323,0.081l-0.101,1.595c-0.269,-0.081 -0.552,-0.121 -0.848,-0.121c-0.969,-0 -1.672,0.313 -2.109,0.939c-0.438,0.625 -0.656,1.483 -0.656,2.573l-0,4.603l-1.575,0l0,-7.207Z" style="fill-rule:nonzero;"/></g></svg>