<?xml version="1.0" encoding="UTF-8" standalone="no"?><!DOCTYPE svg PUBLIC "-//W3C//DTD SVG 1.1//EN" "http://www.w3.org/Graphics/SVG/1.1/DTD/svg11.dtd"><svg width="100%" height="100%" viewBox="0 0 567 336" version="1.1" xmlns="http://www.w3.org/2000/svg" xmlns:xlink="http://www.w3.org/1999/xlink" xml:space="preserve" xmlns:serif="http://www.serif.com/" style="fill-rule:evenodd;clip-rule:evenodd;"><rect id="Artboard1" x="0" y="0" width="566.887" height="335.848" style="fill:none;"/><g id="_4" serif:id="4"><path d="M180.046,127.662l0,-43.106" style="fill:none;stroke:#000;stroke-width:3px;"/><path d="M98.631,57.419l1.695,-0l0,12.718l6.541,-0l0,1.574l-8.236,0l-0,-14.292Z" style="fill-rule:nonzero;"/><path d="M107.897,66.987c-0,-0.74 0.127,-1.413 0.383,-2.018c0.256,-0.606 0.606,-1.127 1.05,-1.565c0.444,-0.437 0.976,-0.777 1.595,-1.019c0.619,-0.243 1.292,-0.364 2.018,-0.364c0.727,0 1.4,0.121 2.019,0.364c0.619,0.242 1.151,0.582 1.595,1.019c0.444,0.438 0.794,0.959 1.05,1.565c0.255,0.605 0.383,1.278 0.383,2.018c0,0.741 -0.128,1.414 -0.383,2.019c-0.256,0.606 -0.606,1.127 -1.05,1.565c-0.444,0.437 -0.976,0.777 -1.595,1.019c-0.619,0.242 -1.292,0.363 -2.019,0.363c-0.726,0 -1.399,-0.121 -2.018,-0.363c-0.619,-0.242 -1.151,-0.582 -1.595,-1.019c-0.444,-0.438 -0.794,-0.959 -1.05,-1.565c-0.256,-0.605 -0.383,-1.278 -0.383,-2.019Zm1.695,0c0,0.498 0.078,0.959 0.232,1.383c0.155,0.424 0.381,0.794 0.677,1.111c0.296,0.316 0.649,0.565 1.06,0.746c0.41,0.182 0.871,0.273 1.382,0.273c0.512,-0 0.973,-0.091 1.383,-0.273c0.411,-0.181 0.764,-0.43 1.06,-0.746c0.296,-0.317 0.522,-0.687 0.676,-1.111c0.155,-0.424 0.233,-0.885 0.233,-1.383c-0,-0.498 -0.078,-0.958 -0.233,-1.382c-0.154,-0.424 -0.38,-0.794 -0.676,-1.111c-0.296,-0.316 -0.649,-0.565 -1.06,-0.747c-0.41,-0.181 -0.871,-0.272 -1.383,-0.272c-0.511,-0 -0.972,0.091 -1.382,0.272c-0.411,0.182 -0.764,0.431 -1.06,0.747c-0.296,0.317 -0.522,0.687 -0.677,1.111c-0.154,0.424 -0.232,0.884 -0.232,1.382Z" style="fill-rule:nonzero;"/><path d="M129.86,71.287c0,1.723 -0.44,3.032 -1.322,3.927c-0.881,0.895 -2.157,1.342 -3.825,1.342c-0.929,0 -1.767,-0.134 -2.514,-0.404c-0.747,-0.269 -1.457,-0.733 -2.129,-1.392l1.13,-1.292c0.498,0.538 1.026,0.945 1.585,1.221c0.558,0.276 1.201,0.414 1.928,0.414c0.699,-0 1.282,-0.105 1.746,-0.313c0.464,-0.209 0.831,-0.491 1.1,-0.848c0.269,-0.357 0.458,-0.764 0.565,-1.221c0.108,-0.458 0.162,-0.936 0.162,-1.434l-0,-1.211l-0.041,0c-0.376,0.606 -0.868,1.05 -1.473,1.332c-0.606,0.283 -1.225,0.424 -1.857,0.424c-0.741,0 -1.42,-0.121 -2.039,-0.363c-0.619,-0.242 -1.151,-0.579 -1.595,-1.009c-0.444,-0.431 -0.788,-0.942 -1.03,-1.535c-0.242,-0.592 -0.363,-1.238 -0.363,-1.938c-0,-0.767 0.121,-1.46 0.363,-2.079c0.242,-0.619 0.582,-1.14 1.02,-1.564c0.437,-0.424 0.965,-0.751 1.584,-0.98c0.619,-0.228 1.306,-0.343 2.06,-0.343c0.323,0 0.645,0.037 0.968,0.111c0.323,0.074 0.636,0.189 0.939,0.344c0.303,0.154 0.576,0.349 0.818,0.585c0.242,0.235 0.444,0.508 0.605,0.818l0.041,-0l-0,-1.615l1.574,-0l0,9.023Zm-8.276,-4.3c-0,0.485 0.087,0.932 0.262,1.343c0.175,0.41 0.414,0.767 0.717,1.07c0.302,0.303 0.656,0.541 1.06,0.716c0.403,0.175 0.834,0.263 1.292,0.263c0.538,-0 1.016,-0.094 1.433,-0.283c0.417,-0.188 0.77,-0.441 1.06,-0.757c0.289,-0.316 0.508,-0.679 0.656,-1.09c0.148,-0.41 0.222,-0.844 0.222,-1.302c-0,-0.511 -0.081,-0.979 -0.242,-1.403c-0.162,-0.424 -0.391,-0.791 -0.687,-1.1c-0.296,-0.31 -0.653,-0.549 -1.07,-0.717c-0.417,-0.168 -0.875,-0.252 -1.372,-0.252c-0.498,-0 -0.953,0.091 -1.363,0.272c-0.411,0.182 -0.761,0.431 -1.05,0.747c-0.289,0.317 -0.515,0.687 -0.676,1.111c-0.162,0.424 -0.242,0.884 -0.242,1.382Z" style="fill-rule:nonzero;"/><path d="M132.909,62.264l1.574,-0l0,9.447l-1.574,0l-0,-9.447Zm-0.364,-3.695c0,-0.309 0.111,-0.578 0.333,-0.807c0.222,-0.229 0.495,-0.343 0.818,-0.343c0.323,-0 0.596,0.114 0.818,0.343c0.222,0.229 0.333,0.498 0.333,0.807c-0,0.337 -0.108,0.613 -0.323,0.828c-0.216,0.215 -0.492,0.323 -0.828,0.323c-0.336,-0 -0.612,-0.108 -0.828,-0.323c-0.215,-0.215 -0.323,-0.491 -0.323,-0.828Z" style="fill-rule:nonzero;"/><path d="M137.814,69.228c0.31,0.39 0.65,0.7 1.02,0.929c0.37,0.229 0.837,0.343 1.403,0.343c0.242,-0 0.488,-0.027 0.737,-0.081c0.249,-0.054 0.474,-0.141 0.676,-0.262c0.202,-0.121 0.363,-0.273 0.484,-0.454c0.121,-0.182 0.182,-0.401 0.182,-0.656c0,-0.256 -0.057,-0.465 -0.172,-0.626c-0.114,-0.162 -0.265,-0.3 -0.454,-0.414c-0.188,-0.115 -0.404,-0.205 -0.646,-0.273c-0.242,-0.067 -0.491,-0.128 -0.747,-0.181c-0.444,-0.095 -0.868,-0.202 -1.272,-0.323c-0.403,-0.121 -0.757,-0.28 -1.059,-0.475c-0.303,-0.195 -0.545,-0.447 -0.727,-0.757c-0.182,-0.309 -0.273,-0.706 -0.273,-1.191c0,-0.457 0.101,-0.861 0.303,-1.211c0.202,-0.35 0.471,-0.639 0.808,-0.868c0.336,-0.229 0.713,-0.404 1.13,-0.525c0.417,-0.121 0.848,-0.182 1.292,-0.182c0.673,0 1.295,0.135 1.867,0.404c0.572,0.269 1.02,0.707 1.343,1.312l-1.312,0.868c-0.202,-0.336 -0.468,-0.609 -0.798,-0.817c-0.329,-0.209 -0.73,-0.313 -1.201,-0.313c-0.215,-0 -0.434,0.027 -0.656,0.081c-0.222,0.053 -0.42,0.134 -0.595,0.242c-0.175,0.107 -0.32,0.245 -0.434,0.414c-0.115,0.168 -0.172,0.36 -0.172,0.575c-0,0.202 0.064,0.373 0.192,0.515c0.128,0.141 0.303,0.266 0.525,0.373c0.222,0.108 0.477,0.202 0.767,0.283c0.289,0.081 0.589,0.148 0.898,0.202c0.417,0.08 0.814,0.185 1.191,0.313c0.377,0.127 0.707,0.299 0.989,0.514c0.283,0.216 0.505,0.485 0.666,0.808c0.162,0.323 0.243,0.72 0.243,1.191c-0,0.538 -0.108,0.996 -0.323,1.373c-0.216,0.377 -0.502,0.683 -0.858,0.918c-0.357,0.236 -0.761,0.407 -1.211,0.515c-0.451,0.108 -0.912,0.161 -1.383,0.161c-0.808,0 -1.504,-0.124 -2.09,-0.373c-0.585,-0.249 -1.113,-0.71 -1.584,-1.383l1.251,-0.969Z" style="fill-rule:nonzero;"/><path d="M151.38,63.596l-2.786,-0l0,4.724c0,0.309 0.007,0.595 0.02,0.858c0.014,0.262 0.068,0.491 0.162,0.686c0.094,0.195 0.235,0.35 0.424,0.464c0.188,0.115 0.457,0.172 0.807,0.172c0.229,-0 0.465,-0.027 0.707,-0.081c0.242,-0.054 0.471,-0.134 0.686,-0.242l0.061,1.433c-0.269,0.121 -0.569,0.209 -0.898,0.263c-0.33,0.054 -0.643,0.08 -0.939,0.08c-0.565,0 -1.016,-0.074 -1.353,-0.222c-0.336,-0.148 -0.599,-0.356 -0.787,-0.625c-0.188,-0.27 -0.313,-0.603 -0.374,-1c-0.06,-0.397 -0.09,-0.837 -0.09,-1.322l-0,-5.188l-2.059,-0l-0,-1.332l2.059,-0l-0,-2.685l1.574,-0l0,2.685l2.786,-0l0,1.332Z" style="fill-rule:nonzero;"/><path d="M153.48,62.264l1.574,-0l0,9.447l-1.574,0l-0,-9.447Zm-0.364,-3.695c0,-0.309 0.111,-0.578 0.333,-0.807c0.222,-0.229 0.495,-0.343 0.818,-0.343c0.323,-0 0.595,0.114 0.818,0.343c0.222,0.229 0.333,0.498 0.333,0.807c-0,0.337 -0.108,0.613 -0.323,0.828c-0.216,0.215 -0.492,0.323 -0.828,0.323c-0.337,-0 -0.612,-0.108 -0.828,-0.323c-0.215,-0.215 -0.323,-0.491 -0.323,-0.828Z" style="fill-rule:nonzero;"/><path d="M164.906,64.625c-0.337,-0.403 -0.7,-0.696 -1.09,-0.878c-0.391,-0.181 -0.821,-0.272 -1.292,-0.272c-0.525,-0 -0.99,0.091 -1.393,0.272c-0.404,0.182 -0.737,0.434 -1,0.757c-0.262,0.323 -0.461,0.697 -0.595,1.121c-0.135,0.424 -0.202,0.878 -0.202,1.362c-0,0.485 0.077,0.939 0.232,1.363c0.155,0.424 0.37,0.797 0.646,1.12c0.276,0.323 0.609,0.576 0.999,0.757c0.391,0.182 0.828,0.273 1.313,0.273c1.036,-0 1.837,-0.39 2.402,-1.171l1.171,1.11c-0.458,0.525 -0.996,0.909 -1.615,1.151c-0.619,0.242 -1.272,0.363 -1.958,0.363c-0.727,0 -1.393,-0.121 -1.999,-0.363c-0.606,-0.242 -1.12,-0.585 -1.544,-1.029c-0.424,-0.445 -0.754,-0.969 -0.99,-1.575c-0.235,-0.606 -0.353,-1.272 -0.353,-1.999c0,-0.713 0.118,-1.372 0.353,-1.978c0.236,-0.606 0.569,-1.13 1,-1.575c0.43,-0.444 0.945,-0.79 1.544,-1.039c0.599,-0.249 1.262,-0.374 1.989,-0.374c0.699,0 1.362,0.121 1.988,0.364c0.626,0.242 1.174,0.619 1.645,1.13l-1.251,1.11Z" style="fill-rule:nonzero;"/><path d="M168.115,69.228c0.31,0.39 0.65,0.7 1.02,0.929c0.37,0.229 0.838,0.343 1.403,0.343c0.242,-0 0.488,-0.027 0.737,-0.081c0.249,-0.054 0.474,-0.141 0.676,-0.262c0.202,-0.121 0.363,-0.273 0.485,-0.454c0.121,-0.182 0.181,-0.401 0.181,-0.656c0,-0.256 -0.057,-0.465 -0.171,-0.626c-0.115,-0.162 -0.266,-0.3 -0.455,-0.414c-0.188,-0.115 -0.403,-0.205 -0.646,-0.273c-0.242,-0.067 -0.491,-0.128 -0.747,-0.181c-0.444,-0.095 -0.868,-0.202 -1.271,-0.323c-0.404,-0.121 -0.757,-0.28 -1.06,-0.475c-0.303,-0.195 -0.545,-0.447 -0.727,-0.757c-0.182,-0.309 -0.272,-0.706 -0.272,-1.191c-0,-0.457 0.101,-0.861 0.302,-1.211c0.202,-0.35 0.471,-0.639 0.808,-0.868c0.336,-0.229 0.713,-0.404 1.13,-0.525c0.418,-0.121 0.848,-0.182 1.292,-0.182c0.673,0 1.296,0.135 1.868,0.404c0.572,0.269 1.019,0.707 1.342,1.312l-1.312,0.868c-0.202,-0.336 -0.468,-0.609 -0.797,-0.817c-0.33,-0.209 -0.731,-0.313 -1.202,-0.313c-0.215,-0 -0.434,0.027 -0.656,0.081c-0.222,0.053 -0.42,0.134 -0.595,0.242c-0.175,0.107 -0.32,0.245 -0.434,0.414c-0.115,0.168 -0.172,0.36 -0.172,0.575c0,0.202 0.064,0.373 0.192,0.515c0.128,0.141 0.303,0.266 0.525,0.373c0.222,0.108 0.478,0.202 0.767,0.283c0.289,0.081 0.589,0.148 0.898,0.202c0.417,0.08 0.815,0.185 1.191,0.313c0.377,0.127 0.707,0.299 0.99,0.514c0.282,0.216 0.504,0.485 0.666,0.808c0.161,0.323 0.242,0.72 0.242,1.191c-0,0.538 -0.108,0.996 -0.323,1.373c-0.215,0.377 -0.501,0.683 -0.858,0.918c-0.357,0.236 -0.76,0.407 -1.211,0.515c-0.451,0.108 -0.912,0.161 -1.383,0.161c-0.808,0 -1.504,-0.124 -2.089,-0.373c-0.586,-0.249 -1.114,-0.71 -1.585,-1.383l1.251,-0.969Z" style="fill-rule:nonzero;"/><path d="M182.408,57.419l2.524,-0l4.844,11.204l0.041,-0l4.885,-11.204l2.463,-0l0,14.292l-1.696,0l0,-11.991l-0.04,-0l-5.128,11.991l-1.029,0l-5.128,-11.991l-0.04,-0l-0,11.991l-1.696,0l0,-14.292Z" style="fill-rule:nonzero;"/><path d="M200.314,63.475c0.485,-0.498 1.06,-0.865 1.726,-1.1c0.666,-0.236 1.343,-0.354 2.029,-0.354c1.4,0 2.409,0.33 3.028,0.989c0.619,0.66 0.929,1.663 0.929,3.008l-0,4.058c-0,0.269 0.013,0.548 0.04,0.838c0.027,0.289 0.061,0.555 0.101,0.797l-1.514,0c-0.054,-0.215 -0.084,-0.454 -0.091,-0.716c-0.006,-0.263 -0.01,-0.495 -0.01,-0.697l-0.04,0c-0.31,0.485 -0.724,0.882 -1.242,1.191c-0.518,0.31 -1.14,0.464 -1.867,0.464c-0.485,0 -0.939,-0.06 -1.363,-0.181c-0.424,-0.121 -0.794,-0.3 -1.11,-0.535c-0.316,-0.236 -0.569,-0.528 -0.757,-0.878c-0.188,-0.35 -0.283,-0.754 -0.283,-1.212c0,-0.78 0.202,-1.392 0.606,-1.837c0.404,-0.444 0.905,-0.773 1.504,-0.989c0.599,-0.215 1.245,-0.35 1.938,-0.404c0.693,-0.053 1.329,-0.08 1.908,-0.08l0.605,-0l0,-0.283c0,-0.686 -0.205,-1.204 -0.615,-1.554c-0.411,-0.35 -0.986,-0.525 -1.727,-0.525c-0.511,-0 -1.012,0.084 -1.503,0.252c-0.492,0.168 -0.926,0.427 -1.303,0.777l-0.989,-1.029Zm4.563,3.694c-1.01,0 -1.811,0.141 -2.403,0.424c-0.592,0.283 -0.888,0.747 -0.888,1.393c0,0.592 0.199,1.013 0.596,1.262c0.397,0.249 0.891,0.373 1.483,0.373c0.458,0 0.858,-0.077 1.202,-0.232c0.343,-0.155 0.629,-0.36 0.857,-0.616c0.229,-0.255 0.404,-0.555 0.525,-0.898c0.121,-0.343 0.189,-0.71 0.202,-1.1l0,-0.606l-1.574,0Z" style="fill-rule:nonzero;"/><path d="M210.913,64.504c-0,-0.43 -0.014,-0.834 -0.041,-1.211c-0.027,-0.377 -0.04,-0.72 -0.04,-1.029l1.494,-0c-0,0.255 0.006,0.511 0.02,0.767c0.013,0.255 0.02,0.518 0.02,0.787l0.04,-0c0.108,-0.229 0.26,-0.451 0.455,-0.666c0.195,-0.216 0.427,-0.407 0.696,-0.576c0.269,-0.168 0.572,-0.302 0.909,-0.403c0.336,-0.101 0.699,-0.152 1.09,-0.152c0.619,0 1.154,0.095 1.605,0.283c0.45,0.188 0.824,0.451 1.12,0.787c0.296,0.337 0.515,0.744 0.656,1.222c0.141,0.477 0.212,0.999 0.212,1.564l0,5.834l-1.575,0l0,-5.672c0,-0.794 -0.174,-1.42 -0.524,-1.878c-0.35,-0.457 -0.895,-0.686 -1.636,-0.686c-0.511,-0 -0.952,0.087 -1.322,0.262c-0.37,0.175 -0.673,0.424 -0.908,0.747c-0.236,0.323 -0.411,0.707 -0.525,1.151c-0.115,0.444 -0.172,0.935 -0.172,1.474l0,4.602l-1.574,0l-0,-7.207Z" style="fill-rule:nonzero;"/><path d="M222.016,63.475c0.484,-0.498 1.06,-0.865 1.726,-1.1c0.666,-0.236 1.342,-0.354 2.029,-0.354c1.399,0 2.409,0.33 3.028,0.989c0.619,0.66 0.928,1.663 0.928,3.008l0,4.058c0,0.269 0.014,0.548 0.041,0.838c0.027,0.289 0.06,0.555 0.101,0.797l-1.514,0c-0.054,-0.215 -0.085,-0.454 -0.091,-0.716c-0.007,-0.263 -0.01,-0.495 -0.01,-0.697l-0.041,0c-0.309,0.485 -0.723,0.882 -1.241,1.191c-0.518,0.31 -1.141,0.464 -1.868,0.464c-0.484,0 -0.938,-0.06 -1.362,-0.181c-0.424,-0.121 -0.794,-0.3 -1.111,-0.535c-0.316,-0.236 -0.568,-0.528 -0.757,-0.878c-0.188,-0.35 -0.282,-0.754 -0.282,-1.212c-0,-0.78 0.202,-1.392 0.605,-1.837c0.404,-0.444 0.905,-0.773 1.504,-0.989c0.599,-0.215 1.245,-0.35 1.938,-0.404c0.693,-0.053 1.329,-0.08 1.908,-0.08l0.606,-0l-0,-0.283c-0,-0.686 -0.206,-1.204 -0.616,-1.554c-0.411,-0.35 -0.986,-0.525 -1.726,-0.525c-0.512,-0 -1.013,0.084 -1.504,0.252c-0.491,0.168 -0.925,0.427 -1.302,0.777l-0.989,-1.029Zm4.562,3.694c-1.009,0 -1.81,0.141 -2.402,0.424c-0.592,0.283 -0.889,0.747 -0.889,1.393c0,0.592 0.199,1.013 0.596,1.262c0.397,0.249 0.892,0.373 1.484,0.373c0.457,0 0.858,-0.077 1.201,-0.232c0.343,-0.155 0.629,-0.36 0.858,-0.616c0.229,-0.255 0.404,-0.555 0.525,-0.898c0.121,-0.343 0.188,-0.71 0.202,-1.1l-0,-0.606l-1.575,0Z" style="fill-rule:nonzero;"/><path d="M242.042,71.287c-0,1.723 -0.441,3.032 -1.323,3.927c-0.881,0.895 -2.156,1.342 -3.825,1.342c-0.929,0 -1.767,-0.134 -2.514,-0.404c-0.747,-0.269 -1.456,-0.733 -2.129,-1.392l1.13,-1.292c0.498,0.538 1.026,0.945 1.585,1.221c0.558,0.276 1.201,0.414 1.928,0.414c0.7,-0 1.282,-0.105 1.746,-0.313c0.464,-0.209 0.831,-0.491 1.1,-0.848c0.269,-0.357 0.458,-0.764 0.565,-1.221c0.108,-0.458 0.162,-0.936 0.162,-1.434l-0,-1.211l-0.04,0c-0.377,0.606 -0.869,1.05 -1.474,1.332c-0.606,0.283 -1.225,0.424 -1.857,0.424c-0.741,0 -1.42,-0.121 -2.039,-0.363c-0.619,-0.242 -1.151,-0.579 -1.595,-1.009c-0.444,-0.431 -0.787,-0.942 -1.03,-1.535c-0.242,-0.592 -0.363,-1.238 -0.363,-1.938c-0,-0.767 0.121,-1.46 0.363,-2.079c0.243,-0.619 0.582,-1.14 1.02,-1.564c0.437,-0.424 0.965,-0.751 1.585,-0.98c0.619,-0.228 1.305,-0.343 2.059,-0.343c0.323,0 0.646,0.037 0.969,0.111c0.323,0.074 0.636,0.189 0.938,0.344c0.303,0.154 0.576,0.349 0.818,0.585c0.242,0.235 0.444,0.508 0.606,0.818l0.04,-0l-0,-1.615l1.575,-0l-0,9.023Zm-8.277,-4.3c-0,0.485 0.087,0.932 0.262,1.343c0.175,0.41 0.414,0.767 0.717,1.07c0.303,0.303 0.656,0.541 1.06,0.716c0.403,0.175 0.834,0.263 1.292,0.263c0.538,-0 1.016,-0.094 1.433,-0.283c0.417,-0.188 0.77,-0.441 1.06,-0.757c0.289,-0.316 0.508,-0.679 0.656,-1.09c0.148,-0.41 0.222,-0.844 0.222,-1.302c-0,-0.511 -0.081,-0.979 -0.242,-1.403c-0.162,-0.424 -0.391,-0.791 -0.687,-1.1c-0.296,-0.31 -0.652,-0.549 -1.07,-0.717c-0.417,-0.168 -0.874,-0.252 -1.372,-0.252c-0.498,-0 -0.953,0.091 -1.363,0.272c-0.41,0.182 -0.76,0.431 -1.05,0.747c-0.289,0.317 -0.515,0.687 -0.676,1.111c-0.162,0.424 -0.242,0.884 -0.242,1.382Z" style="fill-rule:nonzero;"/><path d="M253.387,69.995c-0.565,0.727 -1.185,1.235 -1.857,1.524c-0.673,0.29 -1.454,0.434 -2.342,0.434c-0.74,0 -1.407,-0.131 -1.999,-0.393c-0.592,-0.263 -1.093,-0.616 -1.504,-1.06c-0.41,-0.444 -0.726,-0.969 -0.948,-1.575c-0.223,-0.605 -0.334,-1.251 -0.334,-1.938c0,-0.726 0.122,-1.396 0.364,-2.008c0.242,-0.613 0.579,-1.137 1.009,-1.575c0.431,-0.437 0.942,-0.777 1.534,-1.019c0.593,-0.243 1.239,-0.364 1.938,-0.364c0.66,0 1.265,0.111 1.817,0.333c0.552,0.222 1.026,0.545 1.423,0.969c0.398,0.424 0.704,0.942 0.919,1.555c0.215,0.612 0.323,1.309 0.323,2.089l0,0.505l-7.631,-0c0.027,0.404 0.125,0.791 0.293,1.161c0.168,0.37 0.387,0.693 0.656,0.969c0.269,0.276 0.585,0.494 0.949,0.656c0.363,0.161 0.76,0.242 1.191,0.242c0.686,-0 1.265,-0.121 1.736,-0.363c0.471,-0.243 0.895,-0.599 1.272,-1.07l1.191,0.928Zm-1.353,-3.855c-0.027,-0.808 -0.289,-1.454 -0.787,-1.938c-0.498,-0.485 -1.184,-0.727 -2.059,-0.727c-0.875,-0 -1.581,0.242 -2.12,0.727c-0.538,0.484 -0.861,1.13 -0.969,1.938l5.935,-0Z" style="fill-rule:nonzero;"/><path d="M256.173,64.504c-0,-0.43 -0.014,-0.834 -0.041,-1.211c-0.027,-0.377 -0.04,-0.72 -0.04,-1.029l1.494,-0c-0,0.255 0.007,0.511 0.02,0.767c0.013,0.255 0.02,0.518 0.02,0.787l0.041,-0c0.107,-0.229 0.259,-0.451 0.454,-0.666c0.195,-0.216 0.427,-0.407 0.696,-0.576c0.269,-0.168 0.572,-0.302 0.909,-0.403c0.336,-0.101 0.699,-0.152 1.09,-0.152c0.107,0 0.215,0.007 0.323,0.02c0.107,0.014 0.215,0.041 0.323,0.081l-0.101,1.595c-0.269,-0.081 -0.552,-0.121 -0.848,-0.121c-0.969,-0 -1.672,0.313 -2.11,0.939c-0.437,0.625 -0.656,1.483 -0.656,2.574l0,4.602l-1.574,0l-0,-7.207Z" style="fill-rule:nonzero;"/></g></svg>