<?xml version="1.0" encoding="UTF-8" standalone="no"?><!DOCTYPE svg PUBLIC "-//W3C//DTD SVG 1.1//EN" "http://www.w3.org/Graphics/SVG/1.1/DTD/svg11.dtd"><svg width="100%" height="100%" viewBox="0 0 567 336" version="1.1" xmlns="http://www.w3.org/2000/svg" xmlns:xlink="http://www.w3.org/1999/xlink" xml:space="preserve" xmlns:serif="http://www.serif.com/" style="fill-rule:evenodd;clip-rule:evenodd;"><rect id="Artboard1" x="0" y="0" width="566.887" height="335.848" style="fill:none;"/><g id="_5" serif:id="5"><path d="M67.235,70.832l-0,-43.106" style="fill:none;stroke:#000;stroke-width:3px;"/><path d="M8.046,3.111c-0.283,-0.457 -0.66,-0.79 -1.131,-0.999c-0.471,-0.208 -0.962,-0.313 -1.474,-0.313c-0.376,0 -0.747,0.047 -1.11,0.142c-0.363,0.094 -0.69,0.235 -0.979,0.424c-0.289,0.188 -0.521,0.437 -0.696,0.746c-0.175,0.31 -0.263,0.673 -0.263,1.091c0,0.323 0.051,0.609 0.152,0.858c0.1,0.249 0.265,0.474 0.494,0.676c0.229,0.202 0.538,0.39 0.929,0.565c0.39,0.175 0.868,0.35 1.433,0.525c0.552,0.175 1.087,0.363 1.605,0.565c0.518,0.202 0.976,0.458 1.373,0.767c0.397,0.31 0.713,0.697 0.948,1.161c0.236,0.464 0.354,1.046 0.354,1.746c-0,0.714 -0.142,1.333 -0.424,1.858c-0.283,0.524 -0.656,0.958 -1.121,1.302c-0.464,0.343 -0.999,0.599 -1.604,0.767c-0.606,0.168 -1.232,0.252 -1.878,0.252c-0.417,0 -0.834,-0.037 -1.252,-0.111c-0.417,-0.074 -0.817,-0.188 -1.201,-0.343c-0.383,-0.155 -0.743,-0.357 -1.08,-0.606c-0.336,-0.249 -0.625,-0.555 -0.868,-0.918l1.454,-1.191c0.309,0.525 0.74,0.922 1.292,1.191c0.552,0.269 1.137,0.403 1.756,0.403c0.363,0 0.73,-0.053 1.1,-0.161c0.37,-0.108 0.703,-0.266 1,-0.474c0.296,-0.209 0.538,-0.468 0.726,-0.778c0.189,-0.309 0.283,-0.666 0.283,-1.07c-0,-0.444 -0.074,-0.804 -0.222,-1.08c-0.148,-0.275 -0.377,-0.514 -0.687,-0.716c-0.309,-0.202 -0.699,-0.384 -1.17,-0.545c-0.471,-0.162 -1.023,-0.35 -1.656,-0.566c-0.511,-0.161 -0.982,-0.346 -1.413,-0.555c-0.431,-0.208 -0.804,-0.464 -1.12,-0.767c-0.317,-0.303 -0.566,-0.666 -0.747,-1.09c-0.182,-0.424 -0.273,-0.932 -0.273,-1.524c0,-0.686 0.135,-1.285 0.404,-1.797c0.269,-0.511 0.633,-0.938 1.09,-1.282c0.458,-0.343 0.976,-0.602 1.555,-0.777c0.578,-0.175 1.184,-0.262 1.816,-0.262c0.808,-0 1.545,0.124 2.211,0.373c0.666,0.249 1.262,0.683 1.787,1.302l-1.393,1.211Z" style="fill-rule:nonzero;"/><path d="M17.372,6.765l-2.786,0l0,4.724c0,0.31 0.007,0.596 0.02,0.858c0.014,0.263 0.068,0.491 0.162,0.687c0.094,0.195 0.235,0.349 0.424,0.464c0.188,0.114 0.457,0.171 0.807,0.171c0.229,0 0.465,-0.026 0.707,-0.08c0.242,-0.054 0.471,-0.135 0.686,-0.243l0.061,1.434c-0.269,0.121 -0.569,0.208 -0.898,0.262c-0.33,0.054 -0.643,0.081 -0.939,0.081c-0.565,-0 -1.016,-0.074 -1.353,-0.222c-0.336,-0.148 -0.599,-0.357 -0.787,-0.626c-0.188,-0.269 -0.313,-0.602 -0.373,-0.999c-0.061,-0.397 -0.091,-0.838 -0.091,-1.322l-0,-5.189l-2.059,0l-0,-1.332l2.059,0l-0,-2.685l1.574,0l0,2.685l2.786,0l0,1.332Z" style="fill-rule:nonzero;"/><path d="M18.765,10.157c0,-0.74 0.128,-1.413 0.384,-2.019c0.255,-0.605 0.605,-1.127 1.049,-1.564c0.444,-0.438 0.976,-0.778 1.595,-1.02c0.619,-0.242 1.292,-0.363 2.019,-0.363c0.727,-0 1.4,0.121 2.019,0.363c0.619,0.242 1.15,0.582 1.594,1.02c0.445,0.437 0.794,0.959 1.05,1.564c0.256,0.606 0.384,1.279 0.384,2.019c-0,0.74 -0.128,1.413 -0.384,2.019c-0.256,0.605 -0.605,1.127 -1.05,1.564c-0.444,0.438 -0.975,0.777 -1.594,1.02c-0.619,0.242 -1.292,0.363 -2.019,0.363c-0.727,-0 -1.4,-0.121 -2.019,-0.363c-0.619,-0.243 -1.151,-0.582 -1.595,-1.02c-0.444,-0.437 -0.794,-0.959 -1.049,-1.564c-0.256,-0.606 -0.384,-1.279 -0.384,-2.019Zm1.696,-0c-0,0.498 0.077,0.959 0.232,1.383c0.155,0.424 0.38,0.794 0.676,1.11c0.296,0.316 0.65,0.565 1.06,0.747c0.411,0.182 0.871,0.272 1.383,0.272c0.511,0 0.972,-0.09 1.383,-0.272c0.41,-0.182 0.763,-0.431 1.06,-0.747c0.296,-0.316 0.521,-0.686 0.676,-1.11c0.155,-0.424 0.232,-0.885 0.232,-1.383c0,-0.498 -0.077,-0.959 -0.232,-1.383c-0.155,-0.424 -0.38,-0.794 -0.676,-1.11c-0.297,-0.317 -0.65,-0.566 -1.06,-0.747c-0.411,-0.182 -0.872,-0.273 -1.383,-0.273c-0.512,0 -0.972,0.091 -1.383,0.273c-0.41,0.181 -0.764,0.43 -1.06,0.747c-0.296,0.316 -0.521,0.686 -0.676,1.11c-0.155,0.424 -0.232,0.885 -0.232,1.383Z" style="fill-rule:nonzero;"/><path d="M31.301,7.674c0,-0.431 -0.013,-0.835 -0.04,-1.211c-0.027,-0.377 -0.04,-0.72 -0.04,-1.03l1.494,0c-0,0.256 0.006,0.511 0.02,0.767c0.013,0.256 0.02,0.518 0.02,0.787l0.04,0c0.108,-0.228 0.259,-0.45 0.454,-0.666c0.196,-0.215 0.428,-0.407 0.697,-0.575c0.269,-0.168 0.572,-0.303 0.908,-0.404c0.337,-0.101 0.7,-0.151 1.091,-0.151c0.107,-0 0.215,0.007 0.323,0.02c0.107,0.013 0.215,0.04 0.323,0.081l-0.101,1.595c-0.27,-0.081 -0.552,-0.122 -0.848,-0.122c-0.969,0 -1.672,0.313 -2.11,0.939c-0.437,0.626 -0.656,1.484 -0.656,2.574l0,4.603l-1.575,-0l0,-7.207Z" style="fill-rule:nonzero;"/><path d="M46.482,13.165c-0.565,0.727 -1.184,1.235 -1.857,1.524c-0.673,0.289 -1.453,0.434 -2.342,0.434c-0.74,-0 -1.406,-0.131 -1.998,-0.394c-0.592,-0.262 -1.094,-0.615 -1.504,-1.06c-0.411,-0.444 -0.727,-0.969 -0.949,-1.574c-0.222,-0.606 -0.333,-1.252 -0.333,-1.938c-0,-0.727 0.121,-1.396 0.363,-2.009c0.243,-0.612 0.579,-1.137 1.01,-1.574c0.43,-0.438 0.942,-0.778 1.534,-1.02c0.592,-0.242 1.238,-0.363 1.938,-0.363c0.659,-0 1.265,0.111 1.817,0.333c0.552,0.222 1.026,0.545 1.423,0.969c0.397,0.424 0.703,0.942 0.918,1.554c0.216,0.613 0.323,1.309 0.323,2.09l0,0.504l-7.63,0c0.027,0.404 0.124,0.791 0.292,1.161c0.169,0.37 0.387,0.693 0.656,0.969c0.27,0.276 0.586,0.495 0.949,0.656c0.364,0.162 0.761,0.242 1.191,0.242c0.687,0 1.265,-0.121 1.736,-0.363c0.471,-0.242 0.895,-0.599 1.272,-1.07l1.191,0.929Zm-1.352,-3.856c-0.027,-0.808 -0.29,-1.453 -0.788,-1.938c-0.498,-0.484 -1.184,-0.727 -2.059,-0.727c-0.874,0 -1.581,0.243 -2.119,0.727c-0.539,0.485 -0.862,1.13 -0.969,1.938l5.935,-0Z" style="fill-rule:nonzero;"/><path d="M55.163,0.588l2.523,0l4.845,11.204l0.041,0l4.885,-11.204l2.463,0l-0,14.293l-1.696,-0l0,-11.992l-0.04,0l-5.128,11.992l-1.029,-0l-5.128,-11.992l-0.04,0l-0,11.992l-1.696,-0l-0,-14.293Z" style="fill-rule:nonzero;"/><path d="M73.069,6.644c0.485,-0.498 1.06,-0.864 1.726,-1.1c0.666,-0.235 1.343,-0.353 2.029,-0.353c1.4,-0 2.409,0.33 3.028,0.989c0.619,0.659 0.929,1.662 0.929,3.008l-0,4.058c-0,0.269 0.013,0.548 0.04,0.837c0.027,0.29 0.061,0.555 0.101,0.798l-1.514,-0c-0.054,-0.216 -0.084,-0.455 -0.091,-0.717c-0.007,-0.262 -0.01,-0.495 -0.01,-0.696l-0.04,-0c-0.31,0.484 -0.724,0.881 -1.242,1.191c-0.518,0.309 -1.141,0.464 -1.867,0.464c-0.485,-0 -0.939,-0.061 -1.363,-0.182c-0.424,-0.121 -0.794,-0.299 -1.11,-0.535c-0.317,-0.235 -0.569,-0.528 -0.757,-0.878c-0.189,-0.35 -0.283,-0.754 -0.283,-1.211c0,-0.781 0.202,-1.393 0.606,-1.837c0.403,-0.444 0.905,-0.774 1.504,-0.989c0.599,-0.216 1.245,-0.35 1.938,-0.404c0.693,-0.054 1.329,-0.081 1.907,-0.081l0.606,0l0,-0.282c0,-0.687 -0.205,-1.205 -0.616,-1.555c-0.41,-0.35 -0.986,-0.525 -1.726,-0.525c-0.511,0 -1.012,0.084 -1.504,0.253c-0.491,0.168 -0.925,0.427 -1.302,0.777l-0.989,-1.03Zm4.562,3.695c-1.009,-0 -1.81,0.141 -2.402,0.423c-0.592,0.283 -0.888,0.747 -0.888,1.393c-0,0.593 0.198,1.013 0.595,1.262c0.397,0.249 0.892,0.374 1.484,0.374c0.458,-0 0.858,-0.078 1.201,-0.233c0.343,-0.154 0.629,-0.36 0.858,-0.615c0.229,-0.256 0.404,-0.555 0.525,-0.899c0.121,-0.343 0.189,-0.71 0.202,-1.1l0,-0.605l-1.575,-0Z" style="fill-rule:nonzero;"/><path d="M83.667,7.674c0,-0.431 -0.013,-0.835 -0.04,-1.211c-0.027,-0.377 -0.04,-0.72 -0.04,-1.03l1.494,0c-0,0.256 0.006,0.511 0.02,0.767c0.013,0.256 0.02,0.518 0.02,0.787l0.04,0c0.108,-0.228 0.259,-0.45 0.454,-0.666c0.196,-0.215 0.428,-0.407 0.697,-0.575c0.269,-0.168 0.572,-0.303 0.908,-0.404c0.337,-0.101 0.7,-0.151 1.091,-0.151c0.619,-0 1.154,0.094 1.604,0.282c0.451,0.189 0.825,0.451 1.121,0.788c0.296,0.336 0.515,0.743 0.656,1.221c0.141,0.478 0.212,0.999 0.212,1.565l-0,5.834l-1.575,-0l0,-5.673c0,-0.794 -0.175,-1.42 -0.525,-1.877c-0.35,-0.458 -0.895,-0.687 -1.635,-0.687c-0.511,0 -0.952,0.088 -1.322,0.263c-0.37,0.175 -0.673,0.424 -0.909,0.747c-0.235,0.323 -0.41,0.706 -0.524,1.15c-0.115,0.444 -0.172,0.936 -0.172,1.474l0,4.603l-1.575,-0l0,-7.207Z" style="fill-rule:nonzero;"/><path d="M94.77,6.644c0.485,-0.498 1.06,-0.864 1.726,-1.1c0.667,-0.235 1.343,-0.353 2.029,-0.353c1.4,-0 2.409,0.33 3.028,0.989c0.619,0.659 0.929,1.662 0.929,3.008l0,4.058c0,0.269 0.013,0.548 0.04,0.837c0.027,0.29 0.061,0.555 0.101,0.798l-1.514,-0c-0.054,-0.216 -0.084,-0.455 -0.091,-0.717c-0.006,-0.262 -0.01,-0.495 -0.01,-0.696l-0.04,-0c-0.31,0.484 -0.723,0.881 -1.242,1.191c-0.518,0.309 -1.14,0.464 -1.867,0.464c-0.484,-0 -0.939,-0.061 -1.363,-0.182c-0.423,-0.121 -0.794,-0.299 -1.11,-0.535c-0.316,-0.235 -0.568,-0.528 -0.757,-0.878c-0.188,-0.35 -0.282,-0.754 -0.282,-1.211c-0,-0.781 0.201,-1.393 0.605,-1.837c0.404,-0.444 0.905,-0.774 1.504,-0.989c0.599,-0.216 1.245,-0.35 1.938,-0.404c0.693,-0.054 1.329,-0.081 1.908,-0.081l0.605,0l0,-0.282c0,-0.687 -0.205,-1.205 -0.615,-1.555c-0.411,-0.35 -0.986,-0.525 -1.726,-0.525c-0.512,0 -1.013,0.084 -1.504,0.253c-0.492,0.168 -0.926,0.427 -1.302,0.777l-0.99,-1.03Zm4.563,3.695c-1.01,-0 -1.81,0.141 -2.402,0.423c-0.593,0.283 -0.889,0.747 -0.889,1.393c0,0.593 0.199,1.013 0.596,1.262c0.397,0.249 0.891,0.374 1.484,0.374c0.457,-0 0.858,-0.078 1.201,-0.233c0.343,-0.154 0.629,-0.36 0.858,-0.615c0.228,-0.256 0.403,-0.555 0.525,-0.899c0.121,-0.343 0.188,-0.71 0.201,-1.1l0,-0.605l-1.574,-0Z" style="fill-rule:nonzero;"/><path d="M114.796,14.457c0,1.722 -0.44,3.031 -1.322,3.926c-0.881,0.895 -2.157,1.343 -3.825,1.343c-0.929,-0 -1.767,-0.135 -2.514,-0.404c-0.747,-0.269 -1.457,-0.734 -2.13,-1.393l1.131,-1.292c0.498,0.538 1.026,0.945 1.585,1.221c0.558,0.276 1.201,0.414 1.928,0.414c0.699,0 1.281,-0.104 1.746,-0.313c0.464,-0.208 0.831,-0.491 1.1,-0.848c0.269,-0.356 0.458,-0.763 0.565,-1.221c0.108,-0.458 0.162,-0.935 0.162,-1.433l-0,-1.211l-0.041,-0c-0.377,0.605 -0.868,1.049 -1.473,1.332c-0.606,0.283 -1.225,0.424 -1.858,0.424c-0.74,-0 -1.419,-0.121 -2.039,-0.364c-0.619,-0.242 -1.15,-0.578 -1.594,-1.009c-0.444,-0.431 -0.788,-0.942 -1.03,-1.534c-0.242,-0.592 -0.363,-1.238 -0.363,-1.938c-0,-0.767 0.121,-1.46 0.363,-2.079c0.242,-0.62 0.582,-1.141 1.02,-1.565c0.437,-0.424 0.965,-0.75 1.584,-0.979c0.619,-0.229 1.306,-0.343 2.059,-0.343c0.323,-0 0.646,0.037 0.969,0.111c0.323,0.074 0.636,0.188 0.939,0.343c0.303,0.155 0.575,0.35 0.818,0.585c0.242,0.236 0.444,0.508 0.605,0.818l0.041,0l-0,-1.615l1.574,0l0,9.024Zm-8.277,-4.3c0,0.484 0.088,0.932 0.263,1.342c0.175,0.411 0.414,0.767 0.717,1.07c0.302,0.303 0.656,0.542 1.059,0.717c0.404,0.175 0.835,0.262 1.292,0.262c0.539,0 1.017,-0.094 1.434,-0.282c0.417,-0.189 0.77,-0.441 1.06,-0.757c0.289,-0.317 0.508,-0.68 0.656,-1.09c0.148,-0.411 0.222,-0.845 0.222,-1.303c-0,-0.511 -0.081,-0.979 -0.243,-1.403c-0.161,-0.423 -0.39,-0.79 -0.686,-1.1c-0.296,-0.309 -0.653,-0.548 -1.07,-0.716c-0.417,-0.169 -0.875,-0.253 -1.373,-0.253c-0.498,0 -0.952,0.091 -1.362,0.273c-0.411,0.181 -0.761,0.43 -1.05,0.747c-0.289,0.316 -0.515,0.686 -0.676,1.11c-0.162,0.424 -0.243,0.885 -0.243,1.383Z" style="fill-rule:nonzero;"/><path d="M126.142,13.165c-0.566,0.727 -1.185,1.235 -1.858,1.524c-0.673,0.289 -1.453,0.434 -2.341,0.434c-0.741,-0 -1.407,-0.131 -1.999,-0.394c-0.592,-0.262 -1.093,-0.615 -1.504,-1.06c-0.41,-0.444 -0.727,-0.969 -0.949,-1.574c-0.222,-0.606 -0.333,-1.252 -0.333,-1.938c0,-0.727 0.121,-1.396 0.364,-2.009c0.242,-0.612 0.578,-1.137 1.009,-1.574c0.431,-0.438 0.942,-0.778 1.534,-1.02c0.592,-0.242 1.238,-0.363 1.938,-0.363c0.66,-0 1.265,0.111 1.817,0.333c0.552,0.222 1.026,0.545 1.423,0.969c0.397,0.424 0.703,0.942 0.919,1.554c0.215,0.613 0.323,1.309 0.323,2.09l-0,0.504l-7.631,0c0.027,0.404 0.124,0.791 0.293,1.161c0.168,0.37 0.387,0.693 0.656,0.969c0.269,0.276 0.585,0.495 0.949,0.656c0.363,0.162 0.76,0.242 1.191,0.242c0.686,0 1.265,-0.121 1.736,-0.363c0.471,-0.242 0.895,-0.599 1.272,-1.07l1.191,0.929Zm-1.353,-3.856c-0.027,-0.808 -0.289,-1.453 -0.787,-1.938c-0.498,-0.484 -1.185,-0.727 -2.059,-0.727c-0.875,0 -1.582,0.243 -2.12,0.727c-0.538,0.485 -0.861,1.13 -0.969,1.938l5.935,-0Z" style="fill-rule:nonzero;"/><path d="M128.927,7.674c0,-0.431 -0.013,-0.835 -0.04,-1.211c-0.027,-0.377 -0.04,-0.72 -0.04,-1.03l1.494,0c-0,0.256 0.006,0.511 0.02,0.767c0.013,0.256 0.02,0.518 0.02,0.787l0.04,0c0.108,-0.228 0.259,-0.45 0.455,-0.666c0.195,-0.215 0.427,-0.407 0.696,-0.575c0.269,-0.168 0.572,-0.303 0.908,-0.404c0.337,-0.101 0.7,-0.151 1.091,-0.151c0.107,-0 0.215,0.007 0.323,0.02c0.107,0.013 0.215,0.04 0.323,0.081l-0.101,1.595c-0.27,-0.081 -0.552,-0.122 -0.848,-0.122c-0.969,0 -1.672,0.313 -2.11,0.939c-0.437,0.626 -0.656,1.484 -0.656,2.574l0,4.603l-1.575,-0l0,-7.207Z" style="fill-rule:nonzero;"/></g></svg>