<?xml version="1.0" encoding="UTF-8" standalone="no"?><!DOCTYPE svg PUBLIC "-//W3C//DTD SVG 1.1//EN" "http://www.w3.org/Graphics/SVG/1.1/DTD/svg11.dtd"><svg width="100%" height="100%" viewBox="0 0 567 336" version="1.1" xmlns="http://www.w3.org/2000/svg" xmlns:xlink="http://www.w3.org/1999/xlink" xml:space="preserve" xmlns:serif="http://www.serif.com/" style="fill-rule:evenodd;clip-rule:evenodd;stroke-linejoin:round;stroke-miterlimit:2;"><rect id="Artboard1" x="0" y="0" width="566.887" height="335.848" style="fill:none;"/><g id="base"><g><path d="M65.735,69.239l453.93,227.899l-453.93,0l-0,-227.899Zm3,4.863l-0,220.036l438.269,0l-438.269,-220.036Z"/><path d="M103.479,259.393l0,37.745l-37.744,0l-0,-37.745l37.744,0Zm-3,3l-31.744,0l-0,31.745l31.744,0l0,-31.745Z"/></g><g><path d="M37.202,184.45c0,-0.959 -0.289,-1.668 -0.868,-2.13c-0.579,-0.461 -1.347,-0.691 -2.306,-0.691c-0.723,-0 -1.406,0.14 -2.048,0.42c-0.642,0.28 -1.18,0.638 -1.614,1.072l-1.356,-1.628c0.633,-0.597 1.406,-1.067 2.319,-1.411c0.913,-0.343 1.894,-0.515 2.943,-0.515c0.923,-0 1.723,0.131 2.401,0.393c0.678,0.263 1.235,0.62 1.669,1.072c0.434,0.452 0.759,0.986 0.976,1.6c0.217,0.615 0.326,1.275 0.326,1.981l-0,5.615c-0,0.434 0.013,0.891 0.04,1.37c0.028,0.479 0.077,0.873 0.15,1.18l-2.306,0c-0.145,-0.615 -0.217,-1.23 -0.217,-1.844l-0.082,-0c-0.47,0.687 -1.062,1.22 -1.777,1.6c-0.714,0.38 -1.559,0.57 -2.536,0.57c-0.506,-0 -1.035,-0.068 -1.587,-0.204c-0.552,-0.135 -1.053,-0.357 -1.506,-0.664c-0.452,-0.308 -0.827,-0.715 -1.125,-1.221c-0.299,-0.506 -0.448,-1.13 -0.448,-1.872c0,-0.976 0.262,-1.75 0.787,-2.319c0.524,-0.57 1.211,-1.004 2.061,-1.302c0.85,-0.299 1.809,-0.493 2.876,-0.584c1.067,-0.09 2.143,-0.135 3.228,-0.135l0,-0.353Zm-0.624,2.197c-0.633,0 -1.288,0.027 -1.966,0.082c-0.679,0.054 -1.294,0.163 -1.845,0.325c-0.552,0.163 -1.008,0.407 -1.37,0.733c-0.362,0.325 -0.543,0.759 -0.543,1.302c0,0.38 0.077,0.696 0.231,0.949c0.154,0.254 0.357,0.462 0.61,0.624c0.253,0.163 0.534,0.276 0.841,0.339c0.308,0.064 0.624,0.095 0.95,0.095c1.193,0 2.111,-0.357 2.753,-1.071c0.642,-0.715 0.963,-1.614 0.963,-2.699l0,-0.679l-0.624,0Z" style="fill-rule:nonzero;"/><path d="M50.739,185.02l-7.677,-0l-0,-1.818l4.449,-4.476c0.289,-0.307 0.542,-0.628 0.759,-0.963c0.218,-0.335 0.326,-0.719 0.326,-1.153c0,-0.47 -0.154,-0.836 -0.461,-1.099c-0.308,-0.262 -0.696,-0.393 -1.167,-0.393c-0.488,-0 -0.895,0.167 -1.22,0.502c-0.326,0.334 -0.534,0.782 -0.624,1.343l-2.008,-0.272c0.145,-0.994 0.57,-1.813 1.275,-2.455c0.706,-0.642 1.565,-0.963 2.577,-0.963c0.489,0 0.959,0.068 1.411,0.204c0.452,0.135 0.85,0.343 1.194,0.624c0.343,0.28 0.619,0.628 0.827,1.044c0.208,0.416 0.312,0.904 0.312,1.465c0,0.778 -0.194,1.438 -0.583,1.98c-0.389,0.543 -0.828,1.049 -1.316,1.52l-3.093,3.038l5.019,-0l0,1.872Z" style="fill-rule:nonzero;"/><path d="M283.151,330.613l-0,2.034l-2.469,0l0,-20.508l2.55,-0l0,9.576l0.082,-0c0.434,-0.633 1.04,-1.171 1.817,-1.614c0.778,-0.443 1.7,-0.665 2.767,-0.665c0.959,-0 1.831,0.172 2.618,0.515c0.787,0.344 1.465,0.823 2.035,1.438c0.569,0.615 1.008,1.334 1.316,2.157c0.307,0.823 0.461,1.704 0.461,2.645c-0,0.94 -0.154,1.826 -0.461,2.658c-0.308,0.832 -0.742,1.556 -1.303,2.171c-0.56,0.615 -1.238,1.098 -2.034,1.451c-0.796,0.353 -1.691,0.529 -2.686,0.529c-0.922,0 -1.799,-0.203 -2.631,-0.61c-0.832,-0.407 -1.501,-1 -2.008,-1.777l-0.054,-0Zm8.545,-4.422c0,-0.597 -0.09,-1.176 -0.271,-1.736c-0.181,-0.561 -0.452,-1.058 -0.814,-1.492c-0.362,-0.434 -0.809,-0.778 -1.343,-1.031c-0.533,-0.253 -1.153,-0.38 -1.858,-0.38c-0.651,-0 -1.243,0.127 -1.777,0.38c-0.533,0.253 -0.99,0.597 -1.37,1.031c-0.38,0.434 -0.674,0.931 -0.881,1.492c-0.208,0.56 -0.312,1.148 -0.312,1.763c-0,0.615 0.104,1.203 0.312,1.763c0.207,0.561 0.501,1.054 0.881,1.479c0.38,0.425 0.837,0.764 1.37,1.017c0.534,0.253 1.126,0.38 1.777,0.38c0.705,-0 1.325,-0.131 1.858,-0.393c0.534,-0.263 0.981,-0.611 1.343,-1.045c0.362,-0.434 0.633,-0.931 0.814,-1.492c0.181,-0.561 0.271,-1.139 0.271,-1.736Z" style="fill-rule:nonzero;"/><path d="M304.718,324.889l-7.678,-0l0,-1.818l4.449,-4.476c0.29,-0.307 0.543,-0.628 0.76,-0.963c0.217,-0.335 0.326,-0.719 0.326,-1.153c-0,-0.47 -0.154,-0.836 -0.462,-1.099c-0.307,-0.262 -0.696,-0.393 -1.166,-0.393c-0.488,-0 -0.895,0.167 -1.221,0.502c-0.325,0.334 -0.533,0.782 -0.624,1.343l-2.007,-0.272c0.144,-0.994 0.569,-1.813 1.275,-2.455c0.705,-0.642 1.564,-0.963 2.577,-0.963c0.488,0 0.958,0.068 1.411,0.204c0.452,0.135 0.85,0.343 1.193,0.624c0.344,0.28 0.62,0.628 0.828,1.044c0.208,0.416 0.312,0.904 0.312,1.465c-0,0.778 -0.195,1.438 -0.584,1.98c-0.388,0.543 -0.827,1.049 -1.315,1.52l-3.093,3.038l5.019,-0l-0,1.872Z" style="fill-rule:nonzero;"/></g></g></svg>